<?xml version="1.0" encoding="UTF-8"?>
<svg version="1.1" xmlns="http://www.w3.org/2000/svg" width="400" height="400">
<path d="M0 0 C132 0 264 0 400 0 C400 132 400 264 400 400 C268 400 136 400 0 400 C0 268 0 136 0 0 Z " fill="#FEFEFE" transform="translate(0,0)"/>
<path d="M0 0 C0 11.55 0 23.1 0 35 C-16.335 35.495 -16.335 35.495 -33 36 C-33 47.22 -33 58.44 -33 70 C-43.73076923 73.57692308 -43.73076923 73.57692308 -47 73 C-49.90349977 71.02562015 -51.10983698 67.97956643 -52.765625 64.9609375 C-54.63333431 61.99388031 -56.97442764 59.51350041 -59.33203125 56.9296875 C-60.82567543 55.2016776 -62.00834892 53.51066265 -63.1875 51.5625 C-64.75399338 48.95085969 -64.75399338 48.95085969 -66.9375 47.9375 C-70.80191322 48.05460343 -73.36206731 50.36206731 -76 53 C-77.6476038 53.71247732 -79.31763529 54.37400383 -81 55 C-81.928125 55.37125 -82.85625 55.7425 -83.8125 56.125 C-84.534375 56.41375 -85.25625 56.7025 -86 57 C-86 57.66 -86 58.32 -86 59 C-87.86328125 60.62109375 -87.86328125 60.62109375 -90.3125 62.4375 C-95.82053566 66.31971252 -95.82053566 66.31971252 -99 72 C-98.34 72 -97.68 72 -97 72 C-97 72.66 -97 73.32 -97 74 C-96.34 74 -95.68 74 -95 74 C-94.7525 75.11375 -94.505 76.2275 -94.25 77.375 C-93.44843694 81.03407721 -93.44843694 81.03407721 -91.125 82 C-90.42375 82.33 -89.7225 82.66 -89 83 C-87.99254167 84.6899301 -86.99179729 86.38631483 -86.0859375 88.1328125 C-84.9660685 90.05834266 -83.7074248 91.50430671 -82.1875 93.125 C-80 96 -80 96 -79.9375 98.5625 C-81.21648388 101.49663948 -82.90620217 103.58896008 -85 106 C-85.66 106.99 -86.32 107.98 -87 109 C-91.6009187 108.53990813 -94.90008057 108.11608745 -99 106 C-100.051875 105.87625 -101.10375 105.7525 -102.1875 105.625 C-105.50395637 105.08131863 -107.53091035 104.40614467 -110.5 103 C-114.41397608 101.14707136 -117.69736033 100.3661821 -122 100 C-122.15855469 100.64324219 -122.31710938 101.28648438 -122.48046875 101.94921875 C-124.67024749 110.43007453 -127.64619352 118.54082075 -131.11328125 126.58203125 C-132.01986446 129.05416785 -132.39075696 131.1967861 -132.625 133.8125 C-132.69976562 134.60269531 -132.77453125 135.39289063 -132.8515625 136.20703125 C-132.90054688 136.79871094 -132.94953125 137.39039063 -133 138 C-131.7934375 138.1546875 -131.7934375 138.1546875 -130.5625 138.3125 C-127.17752318 138.96574114 -124.16205628 139.91116976 -120.91796875 141.0390625 C-116.21124769 142.58906702 -111.44227602 143.93006636 -106.67651367 145.28613281 C-101.10706808 146.89293192 -101.10706808 146.89293192 -100 148 C-99.84820622 150.30901696 -99.77818878 152.62367069 -99.75 154.9375 C-99.72421875 156.20464844 -99.6984375 157.47179687 -99.671875 158.77734375 C-99.78015625 159.84082031 -99.8884375 160.90429688 -100 162 C-102.90643721 163.9376248 -104.79438921 164.59773061 -108.125 165.4375 C-114.70925351 167.16380626 -121.08294595 169.25311149 -127.4375 171.6875 C-131 173 -131 173 -133 173 C-129.58920873 191.527821 -129.58920873 191.527821 -121 208 C-121 208.66 -121 209.32 -121 210 C-116.04425639 208.94385792 -111.18072409 207.78211683 -106.3125 206.375 C-102.43044829 205.28998836 -99.06317022 204.67055377 -95 205 C-95 204.34 -95 203.68 -95 203 C-89.96149558 201.69693851 -89.96149558 201.69693851 -87 202 C-83.56654025 204.46711287 -81.52519773 207.46612813 -80.1640625 211.44140625 C-79.9495277 214.78712748 -80.89449486 216.10393536 -82.8125 218.8125 C-83.35519531 219.60269531 -83.89789063 220.39289063 -84.45703125 221.20703125 C-84.96621094 221.79871094 -85.47539062 222.39039063 -86 223 C-86.66 223 -87.32 223 -88 223 C-88.24621094 223.5465625 -88.49242187 224.093125 -88.74609375 224.65625 C-90.81084912 228.51560583 -93.5801142 231.86496046 -96.22265625 235.34375 C-97.80106821 237.70269535 -98.576357 239.2365441 -99 242 C-98.41476563 242.26683594 -97.82953125 242.53367187 -97.2265625 242.80859375 C-94.96379627 244.01937217 -93.28116429 245.3536699 -91.375 247.0625 C-89.5818742 248.66378483 -88.15343684 249.92328158 -86 251 C-86 251.66 -86 252.32 -86 253 C-85.278125 253.25652344 -84.55625 253.51304687 -83.8125 253.77734375 C-79.94364341 255.45922169 -76.85847386 257.91730324 -73.5 260.44140625 C-70.92584187 262.04623296 -68.98457579 262.61093923 -66 263 C-65.76925781 262.30648438 -65.53851563 261.61296875 -65.30078125 260.8984375 C-63.73096932 257.40053824 -61.56807634 254.59408717 -59.1875 251.625 C-56.33012043 248.05592734 -53.75428113 244.65138312 -51.5625 240.625 C-49 238 -49 238 -46.2578125 237.80859375 C-43.44714589 238.04102801 -40.75931636 238.42494107 -38 239 C-38 237.02 -38 235.04 -38 233 C-40.75486753 231.31440334 -40.75486753 231.31440334 -43.89453125 231.2578125 C-46.34554913 232.12180767 -47.9213755 233.30463877 -49.9375 234.9375 C-52.85198064 237.20916061 -55.43177668 238.88493021 -59 240 C-59 240.66 -59 241.32 -59 242 C-60.72421427 243.21485385 -62.50634884 244.34818704 -64.3125 245.4375 C-68.25318678 247.75076654 -68.25318678 247.75076654 -71.60546875 250.78515625 C-73 252 -73 252 -74.921875 251.87890625 C-77.34635002 250.85351738 -79.17875528 249.55997503 -81.25 247.9375 C-81.95640625 247.38964844 -82.6628125 246.84179688 -83.390625 246.27734375 C-83.92171875 245.85582031 -84.4528125 245.43429687 -85 245 C-84.39719926 239.78475764 -83.2142333 235.09878565 -81.5625 230.125 C-79.72996393 224.45495638 -78.15009447 218.85502641 -77 213 C-76.34 213 -75.68 213 -75 213 C-75.45292125 208.28961897 -76.08465561 205.67586901 -79 202 C-79 200.68 -79 199.36 -79 198 C-99.295 197.505 -99.295 197.505 -120 197 C-120 195.68 -120 194.36 -120 193 C-120.66 193 -121.32 193 -122 193 C-122.33 189.7 -122.66 186.4 -123 183 C-122.34 183 -121.68 183 -121 183 C-121 182.34 -121 181.68 -121 181 C-120.34 181 -119.68 181 -119 181 C-119 180.34 -119 179.68 -119 179 C-117.63404481 178.04383137 -116.25913299 177.09853281 -114.84765625 176.2109375 C-112.79142945 174.86330472 -110.87765639 173.38441958 -108.9375 171.875 C-106.07324414 169.69794564 -103.47077248 168.0846164 -100 167 C-100 166.34 -100 165.68 -100 165 C-99.18789062 164.608125 -98.37578125 164.21625 -97.5390625 163.8125 C-94.65411356 162.18819934 -94.65411356 162.18819934 -94.3359375 158.75 C-94.35527344 156.89375 -94.35527344 156.89375 -94.375 155 C-94.36210937 153.7625 -94.34921875 152.525 -94.3359375 151.25 C-94.65411356 147.81180066 -94.65411356 147.81180066 -97.5390625 146.1875 C-98.35117188 145.795625 -99.16328125 145.40375 -100 145 C-100 144.34 -100 143.68 -100 143 C-101.32 142.67 -102.64 142.34 -104 142 C-104 141.34 -104 140.68 -104 140 C-104.58136719 139.90332031 -105.16273438 139.80664062 -105.76171875 139.70703125 C-108.46359763 138.85355816 -109.76688392 137.6331267 -111.8125 135.6875 C-115.33737589 132.47344806 -118.77720022 130.19937489 -123 128 C-122.85879286 126.06215735 -122.71187127 124.12473045 -122.5625 122.1875 C-122.48128906 121.10855469 -122.40007812 120.02960938 -122.31640625 118.91796875 C-122 116 -122 116 -121 113 C-107.8 113 -94.6 113 -81 113 C-80.67 111.35 -80.34 109.7 -80 108 C-78.5625 105.6875 -78.5625 105.6875 -77 104 C-76.34 104 -75.68 104 -75 104 C-76.33738069 93.11648817 -80.26262198 83.14250705 -84.69140625 73.18359375 C-86 70 -86 70 -86 67.3125 C-84.64338387 64.1753252 -82.77997987 62.93952084 -80 61 C-79.319375 60.401875 -78.63875 59.80375 -77.9375 59.1875 C-76 58 -76 58 -73.75 58.3125 C-73.1725 58.539375 -72.595 58.76625 -72 59 C-71.505 60.98 -71.505 60.98 -71 63 C-70.34 63.04125 -69.68 63.0825 -69 63.125 C-65.40619049 64.17319444 -63.30853047 65.87202863 -60.40234375 68.17578125 C-56.54087471 71.10798619 -52.42829843 73.65717576 -48.34375 76.265625 C-47.18359375 77.12414062 -47.18359375 77.12414062 -46 78 C-46 78.66 -46 79.32 -46 80 C-43.69 80 -41.38 80 -39 80 C-38.67 79.01 -38.34 78.02 -38 77 C-36.88238281 76.7525 -35.76476562 76.505 -34.61328125 76.25 C-30.74462238 75.3652083 -30.74462238 75.3652083 -29.29296875 71.875 C-28.89365495 70.59252745 -28.52641736 69.29973935 -28.1875 68 C-27.98793701 67.32807617 -27.78837402 66.65615234 -27.58276367 65.96386719 C-26.24938327 61.35353496 -25.19130134 56.69763945 -24.45703125 51.953125 C-24 50 -24 50 -22 47 C-21.34 44.69 -20.68 42.38 -20 40 C-14.72 40 -9.44 40 -4 40 C-4 42.97 -4 45.94 -4 49 C-3.34 49 -2.68 49 -2 49 C-1.74605469 49.99 -1.49210938 50.98 -1.23046875 52 C0.54160371 58.82316983 2.42315454 65.42904407 5 72 C5 72.66 5 73.32 5 74 C19.85 74 34.7 74 50 74 C50 166.07 50 258.14 50 353 C38.12 353 26.24 353 14 353 C14 314.72 14 276.44 14 237 C9.71 237 5.42 237 1 237 C0.67 238.65 0.34 240.3 0 242 C-0.49474397 243.61240394 -1.01488607 245.21727681 -1.5625 246.8125 C-1.96662109 247.99779297 -1.96662109 247.99779297 -2.37890625 249.20703125 C-2.68634766 250.09455078 -2.68634766 250.09455078 -3 251 C-3.66 251 -4.32 251 -5 251 C-5.12375 252.0725 -5.2475 253.145 -5.375 254.25 C-5.89643936 257.37863615 -6.40088254 259.33480424 -8 262 C-8.66 262 -9.32 262 -10 262 C-10.33 264.64 -10.66 267.28 -11 270 C-11.66 270 -12.32 270 -13 270 C-13.0825 270.804375 -13.165 271.60875 -13.25 272.4375 C-13.86379519 275.35302714 -14.5119713 277.30169696 -15.75 279.9375 C-17.66055624 284.02858238 -19.11561632 288.20878232 -20.5 292.5 C-22.3534744 298.18570498 -24.41807842 303.60737897 -27 309 C-27.9967826 311.11197351 -28.99102765 313.22513194 -29.98510742 315.33837891 C-30.68609022 316.82612077 -31.3892633 318.31283327 -32.0949707 319.79833984 C-36.73203564 329.58280654 -41.21821729 339.514819 -44 350 C-44.33 350.99 -44.66 351.98 -45 353 C-58.53 353 -72.06 353 -86 353 C-84.61462271 349.53655678 -83.24209001 346.50048502 -81.5 343.25 C-79.45040881 339.21674015 -78.28838569 335.54637268 -77.46875 331.1171875 C-76.74678736 327.85632291 -75.41280973 325.01827533 -74 322 C-73.34 322 -72.68 322 -72 322 C-71.42660028 319.72278396 -70.86598742 317.44327347 -70.31640625 315.16015625 C-70.06761719 314.13792969 -69.81882812 313.11570312 -69.5625 312.0625 C-69.31628906 311.04285156 -69.07007813 310.02320313 -68.81640625 308.97265625 C-68.05690948 306.20721585 -67.1215417 303.63635128 -66 301 C-67.01707031 300.87044922 -67.01707031 300.87044922 -68.0546875 300.73828125 C-75.14947573 299.66718441 -80.77362034 297.53863659 -87 294 C-87 293.34 -87 292.68 -87 292 C-87.721875 291.90460938 -88.44375 291.80921875 -89.1875 291.7109375 C-92.42428798 290.89274943 -94.32573149 289.60563012 -97 287.625 C-99.42289252 285.84568831 -101.77444834 284.12941489 -104.3828125 282.6328125 C-107.83400556 280.47968011 -110.8093716 277.9138969 -113.875 275.25 C-114.49705322 274.71213867 -115.11910645 274.17427734 -115.76000977 273.62011719 C-125.45793801 265.17784356 -135.53262196 255.84598575 -141 244 C-141.66 244 -142.32 244 -143 244 C-144.7265625 241.48046875 -144.7265625 241.48046875 -146.625 238.1875 C-147.25664062 237.10855469 -147.88828125 236.02960938 -148.5390625 234.91796875 C-150 232 -150 232 -150 229 C-150.66 229 -151.32 229 -152 229 C-152.33 227.02 -152.66 225.04 -153 223 C-153.66 223 -154.32 223 -155 223 C-155.33 220.69 -155.66 218.38 -156 216 C-156.66 216 -157.32 216 -158 216 C-160.02350324 212.96474514 -160.32124018 211.80573798 -160.625 208.3125 C-160.69976562 207.50425781 -160.77453125 206.69601563 -160.8515625 205.86328125 C-160.90054688 205.24839844 -160.94953125 204.63351563 -161 204 C-161.66 204 -162.32 204 -163 204 C-167.59225513 185.17995444 -167.59225513 185.17995444 -167 176 C-167.66 176 -168.32 176 -169 176 C-169.85222201 119.23764409 -169.85222201 119.23764409 -161.4375 105.4375 C-160.01969985 103.03340409 -159.62824703 101.51216162 -159.125 98.8125 C-158.03704992 93.35461708 -155.5977947 88.87684158 -153 84 C-152.41563478 82.72964083 -151.83224818 81.45883088 -151.25 80.1875 C-148.19644167 74.05545633 -143.95810463 68.56961865 -140 63 C-139.46375 62.21109375 -138.9275 61.4221875 -138.375 60.609375 C-137.30105217 59.03680854 -136.15936893 57.51069285 -135 56 C-134.34 56 -133.68 56 -133 56 C-132.7525 55.443125 -132.505 54.88625 -132.25 54.3125 C-130.77075182 51.57589087 -129.06532561 49.32349131 -127 47 C-126.34 47 -125.68 47 -125 47 C-125 46.34 -125 45.68 -125 45 C-124.34 45 -123.68 45 -123 45 C-122.80535156 44.46117187 -122.61070312 43.92234375 -122.41015625 43.3671875 C-120.35547415 39.91805355 -117.49611397 37.68312079 -114.4375 35.125 C-113.4940271 34.32872192 -113.4940271 34.32872192 -112.53149414 33.51635742 C-100.0629283 23.1139107 -100.0629283 23.1139107 -93 22 C-93 21.34 -93 20.68 -93 20 C-92.05125 19.54625 -91.1025 19.0925 -90.125 18.625 C-86.99686321 17.19761746 -86.99686321 17.19761746 -85 15 C-83.30885266 14.48183701 -81.59616285 14.03251767 -79.875 13.625 C-75.50192626 12.50033221 -71.80938763 11.03893478 -67.84375 8.91796875 C-63.60267235 6.80641526 -59.69881768 6 -55 6 C-55 5.34 -55 4.68 -55 4 C-36.35962594 -0.26844132 -19.07483643 -0.327465 0 0 Z " fill="#034E77" transform="translate(260,24)"/>
<path d="M0 0 C0 11.55 0 23.1 0 35 C-16.335 35.495 -16.335 35.495 -33 36 C-33 47.22 -33 58.44 -33 70 C-43.73076923 73.57692308 -43.73076923 73.57692308 -47 73 C-49.90349977 71.02562015 -51.10983698 67.97956643 -52.765625 64.9609375 C-54.63333431 61.99388031 -56.97442764 59.51350041 -59.33203125 56.9296875 C-60.82567543 55.2016776 -62.00834892 53.51066265 -63.1875 51.5625 C-64.75399338 48.95085969 -64.75399338 48.95085969 -66.9375 47.9375 C-70.80191322 48.05460343 -73.36206731 50.36206731 -76 53 C-77.6476038 53.71247732 -79.31763529 54.37400383 -81 55 C-81.928125 55.37125 -82.85625 55.7425 -83.8125 56.125 C-84.534375 56.41375 -85.25625 56.7025 -86 57 C-86 57.66 -86 58.32 -86 59 C-87.86328125 60.62109375 -87.86328125 60.62109375 -90.3125 62.4375 C-95.82053566 66.31971252 -95.82053566 66.31971252 -99 72 C-98.34 72 -97.68 72 -97 72 C-97 72.66 -97 73.32 -97 74 C-96.34 74 -95.68 74 -95 74 C-94.7525 75.11375 -94.505 76.2275 -94.25 77.375 C-93.44843694 81.03407721 -93.44843694 81.03407721 -91.125 82 C-90.42375 82.33 -89.7225 82.66 -89 83 C-87.99254167 84.6899301 -86.99179729 86.38631483 -86.0859375 88.1328125 C-84.9660685 90.05834266 -83.7074248 91.50430671 -82.1875 93.125 C-80 96 -80 96 -79.9375 98.5625 C-81.21648388 101.49663948 -82.90620217 103.58896008 -85 106 C-85.66 106.99 -86.32 107.98 -87 109 C-91.6009187 108.53990813 -94.90008057 108.11608745 -99 106 C-100.051875 105.87625 -101.10375 105.7525 -102.1875 105.625 C-105.50395637 105.08131863 -107.53091035 104.40614467 -110.5 103 C-114.41397608 101.14707136 -117.69736033 100.3661821 -122 100 C-122.15855469 100.64324219 -122.31710938 101.28648438 -122.48046875 101.94921875 C-124.67024749 110.43007453 -127.64619352 118.54082075 -131.11328125 126.58203125 C-132.01986446 129.05416785 -132.39075696 131.1967861 -132.625 133.8125 C-132.69976562 134.60269531 -132.77453125 135.39289063 -132.8515625 136.20703125 C-132.90054688 136.79871094 -132.94953125 137.39039063 -133 138 C-131.7934375 138.1546875 -131.7934375 138.1546875 -130.5625 138.3125 C-127.17752318 138.96574114 -124.16205628 139.91116976 -120.91796875 141.0390625 C-116.21124769 142.58906702 -111.44227602 143.93006636 -106.67651367 145.28613281 C-101.10706808 146.89293192 -101.10706808 146.89293192 -100 148 C-99.84820622 150.30901696 -99.77818878 152.62367069 -99.75 154.9375 C-99.72421875 156.20464844 -99.6984375 157.47179687 -99.671875 158.77734375 C-99.78015625 159.84082031 -99.8884375 160.90429688 -100 162 C-102.90643721 163.9376248 -104.79438921 164.59773061 -108.125 165.4375 C-114.70925351 167.16380626 -121.08294595 169.25311149 -127.4375 171.6875 C-131 173 -131 173 -133 173 C-129.58920873 191.527821 -129.58920873 191.527821 -121 208 C-121 208.66 -121 209.32 -121 210 C-116.04425639 208.94385792 -111.18072409 207.78211683 -106.3125 206.375 C-102.43044829 205.28998836 -99.06317022 204.67055377 -95 205 C-95 204.34 -95 203.68 -95 203 C-89.96149558 201.69693851 -89.96149558 201.69693851 -87 202 C-83.56654025 204.46711287 -81.52519773 207.46612813 -80.1640625 211.44140625 C-79.9495277 214.78712748 -80.89449486 216.10393536 -82.8125 218.8125 C-83.35519531 219.60269531 -83.89789063 220.39289063 -84.45703125 221.20703125 C-84.96621094 221.79871094 -85.47539062 222.39039063 -86 223 C-86.66 223 -87.32 223 -88 223 C-88.24621094 223.5465625 -88.49242187 224.093125 -88.74609375 224.65625 C-90.81084912 228.51560583 -93.5801142 231.86496046 -96.22265625 235.34375 C-97.80106821 237.70269535 -98.576357 239.2365441 -99 242 C-98.41476563 242.26683594 -97.82953125 242.53367187 -97.2265625 242.80859375 C-94.96379627 244.01937217 -93.28116429 245.3536699 -91.375 247.0625 C-89.5818742 248.66378483 -88.15343684 249.92328158 -86 251 C-86 251.66 -86 252.32 -86 253 C-85.278125 253.25652344 -84.55625 253.51304687 -83.8125 253.77734375 C-79.94364341 255.45922169 -76.85847386 257.91730324 -73.5 260.44140625 C-70.92584187 262.04623296 -68.98457579 262.61093923 -66 263 C-65.76925781 262.30648438 -65.53851563 261.61296875 -65.30078125 260.8984375 C-63.7305645 257.39963621 -61.5652313 254.59694646 -59.1875 251.625 C-58.28687554 250.47855918 -57.38712752 249.33142926 -56.48828125 248.18359375 C-56.05854004 247.63687012 -55.62879883 247.09014648 -55.18603516 246.52685547 C-53.02897013 243.74993396 -51.01149749 240.8831464 -49 238 C-45.7 238.33 -42.4 238.66 -39 239 C-41.32192697 246.31406995 -43.71886225 253.57829337 -48 260 C-48.53861301 261.4865719 -49.03642597 262.98834557 -49.5 264.5 C-50.41921264 267.49743253 -51.22315191 269.33472786 -53 272 C-53.4612803 273.82261974 -53.87196929 275.65831191 -54.25 277.5 C-55.28357996 281.86922439 -56.57550445 285.33731898 -58.875 289.1875 C-63.0511945 296.28703065 -64.90590388 304.09617704 -67 312 C-67.33 312 -67.66 312 -68 312 C-68.19834137 307.73566065 -67.68610848 304.89663652 -66 301 C-67.01707031 300.87044922 -67.01707031 300.87044922 -68.0546875 300.73828125 C-75.14947573 299.66718441 -80.77362034 297.53863659 -87 294 C-87 293.34 -87 292.68 -87 292 C-87.721875 291.90460938 -88.44375 291.80921875 -89.1875 291.7109375 C-92.42428798 290.89274943 -94.32573149 289.60563012 -97 287.625 C-99.42289252 285.84568831 -101.77444834 284.12941489 -104.3828125 282.6328125 C-107.83400556 280.47968011 -110.8093716 277.9138969 -113.875 275.25 C-114.49705322 274.71213867 -115.11910645 274.17427734 -115.76000977 273.62011719 C-125.45793801 265.17784356 -135.53262196 255.84598575 -141 244 C-141.66 244 -142.32 244 -143 244 C-144.7265625 241.48046875 -144.7265625 241.48046875 -146.625 238.1875 C-147.25664062 237.10855469 -147.88828125 236.02960938 -148.5390625 234.91796875 C-150 232 -150 232 -150 229 C-150.66 229 -151.32 229 -152 229 C-152.33 227.02 -152.66 225.04 -153 223 C-153.66 223 -154.32 223 -155 223 C-155.33 220.69 -155.66 218.38 -156 216 C-156.66 216 -157.32 216 -158 216 C-160.02350324 212.96474514 -160.32124018 211.80573798 -160.625 208.3125 C-160.69976562 207.50425781 -160.77453125 206.69601563 -160.8515625 205.86328125 C-160.90054688 205.24839844 -160.94953125 204.63351563 -161 204 C-161.66 204 -162.32 204 -163 204 C-167.59225513 185.17995444 -167.59225513 185.17995444 -167 176 C-167.66 176 -168.32 176 -169 176 C-169.85222201 119.23764409 -169.85222201 119.23764409 -161.4375 105.4375 C-160.01969985 103.03340409 -159.62824703 101.51216162 -159.125 98.8125 C-158.03704992 93.35461708 -155.5977947 88.87684158 -153 84 C-152.41563478 82.72964083 -151.83224818 81.45883088 -151.25 80.1875 C-148.19644167 74.05545633 -143.95810463 68.56961865 -140 63 C-139.46375 62.21109375 -138.9275 61.4221875 -138.375 60.609375 C-137.30105217 59.03680854 -136.15936893 57.51069285 -135 56 C-134.34 56 -133.68 56 -133 56 C-132.7525 55.443125 -132.505 54.88625 -132.25 54.3125 C-130.77075182 51.57589087 -129.06532561 49.32349131 -127 47 C-126.34 47 -125.68 47 -125 47 C-125 46.34 -125 45.68 -125 45 C-124.34 45 -123.68 45 -123 45 C-122.80535156 44.46117187 -122.61070312 43.92234375 -122.41015625 43.3671875 C-120.35547415 39.91805355 -117.49611397 37.68312079 -114.4375 35.125 C-113.4940271 34.32872192 -113.4940271 34.32872192 -112.53149414 33.51635742 C-100.0629283 23.1139107 -100.0629283 23.1139107 -93 22 C-93 21.34 -93 20.68 -93 20 C-92.05125 19.54625 -91.1025 19.0925 -90.125 18.625 C-86.99686321 17.19761746 -86.99686321 17.19761746 -85 15 C-83.30885266 14.48183701 -81.59616285 14.03251767 -79.875 13.625 C-75.50192626 12.50033221 -71.80938763 11.03893478 -67.84375 8.91796875 C-63.60267235 6.80641526 -59.69881768 6 -55 6 C-55 5.34 -55 4.68 -55 4 C-36.35962594 -0.26844132 -19.07483643 -0.327465 0 0 Z " fill="#B2BB1F" transform="translate(260,24)"/>
<path d="M0 0 C0 26.4 0 52.8 0 80 C-10.89 80 -21.78 80 -33 80 C-33.33 79.67 -33.66 79.34 -34 79 C-36.77092376 78.50358043 -39.5501664 78.09958007 -42.3359375 77.6953125 C-45.22610447 76.9409874 -46.09739432 76.21220127 -48 74 C-48.9075 73.443125 -49.815 72.88625 -50.75 72.3125 C-54.79941846 69.43118302 -58.15900171 66.09339102 -61 62 C-61 61.01 -61 60.02 -61 59 C-61.66 59 -62.32 59 -63 59 C-66.10095959 52.2587835 -67.14649175 46.47990474 -67.1875 39 C-67.20167969 37.824375 -67.21585938 36.64875 -67.23046875 35.4375 C-66.99589124 31.93871685 -66.24424682 29.26269166 -65 26 C-64.649375 24.9275 -64.29875 23.855 -63.9375 22.75 C-60.3362345 14.54711747 -52.46633506 7.63817784 -45 3 C-34 0 -34 0 0 0 Z " fill="#FBFCFD" transform="translate(274,139)"/>
<path d="M0 0 C0.33 0 0.66 0 1 0 C1 11.22 1 22.44 1 34 C1.66 34 2.32 34 3 34 C3.185625 32.5459375 3.185625 32.5459375 3.375 31.0625 C3.58125 30.051875 3.7875 29.04125 4 28 C4.99 27.505 4.99 27.505 6 27 C5.37914193 31.17139017 4.62903372 35.09777217 3 39 C0.32595863 40.91693327 -1.71918862 41.25917162 -5 42 C-5.495 42.99 -5.495 42.99 -6 44 C-8.31 44 -10.62 44 -13 44 C-13 43.34 -13 42.68 -13 42 C-13.57363281 41.72671875 -14.14726562 41.4534375 -14.73828125 41.171875 C-17.00938546 39.99513707 -19.07070943 38.68432803 -21.1875 37.25 C-21.96738281 36.72535156 -22.74726563 36.20070312 -23.55078125 35.66015625 C-25.19557066 34.5452671 -26.8387804 33.42804423 -28.48046875 32.30859375 C-29.27066406 31.77363281 -30.06085938 31.23867187 -30.875 30.6875 C-31.59429687 30.19636719 -32.31359375 29.70523438 -33.0546875 29.19921875 C-35.08731697 27.84386787 -35.08731697 27.84386787 -38 27 C-39.1875 24.9375 -39.1875 24.9375 -40 23 C-43.43950364 23.61198376 -45.51564485 24.92058847 -48.25 27.0625 C-49.30960938 27.88427734 -49.30960938 27.88427734 -50.390625 28.72265625 C-50.92171875 29.14417969 -51.4528125 29.56570312 -52 30 C-50.36935535 38.56088443 -47.52608038 46.43786771 -44.0859375 54.43359375 C-42.02165774 59.31212542 -41.9143009 62.77235494 -42 68 C-42.66 68 -43.32 68 -44 68 C-45.53924548 70.96854486 -46.74646003 73.86615008 -48 77 C-61.2 77 -74.4 77 -88 77 C-88.66 81.95 -89.32 86.9 -90 92 C-88.68 92.66 -87.36 93.32 -86 94 C-82.07552722 96.12133664 -78.93027952 98.71046975 -75.6484375 101.6953125 C-73.91913055 103.21628944 -73.91913055 103.21628944 -71 104 C-71 104.66 -71 105.32 -71 106 C-70.38125 106.103125 -69.7625 106.20625 -69.125 106.3125 C-67 107 -67 107 -65 110 C-62.94996045 111.19232613 -62.94996045 111.19232613 -61 112 C-60.89205723 114.26979665 -60.81443824 116.54105196 -60.75 118.8125 C-60.70359375 120.07707031 -60.6571875 121.34164062 -60.609375 122.64453125 C-61 126 -61 126 -62.890625 127.94921875 C-65 129 -65 129 -67 129 C-67 129.66 -67 130.32 -67 131 C-68.29507982 131.91005609 -69.60113685 132.80634977 -70.94140625 133.6484375 C-74.61587826 136.0608992 -78.09151567 138.75703632 -81.609375 141.390625 C-84 143 -84 143 -86 143 C-86 143.66 -86 144.32 -86 145 C-86.66 145 -87.32 145 -88 145 C-88 145.66 -88 146.32 -88 147 C-88.66 147 -89.32 147 -90 147 C-89.67 150.3 -89.34 153.6 -89 157 C-88.34 157 -87.68 157 -87 157 C-87 158.32 -87 159.64 -87 161 C-85.24357178 160.99214478 -85.24357178 160.99214478 -83.45166016 160.98413086 C-79.11686972 160.96606242 -74.78208263 160.95456121 -70.44726562 160.94506836 C-68.56933025 160.94003237 -66.6913988 160.93320329 -64.81347656 160.92456055 C-62.11782868 160.91246287 -59.42223253 160.90676443 -56.7265625 160.90234375 C-55.88380768 160.89718246 -55.04105286 160.89202118 -54.17276001 160.88670349 C-48.22774341 160.88612829 -48.22774341 160.88612829 -46 162 C-44.96514123 164.31808364 -43.9644586 166.65175298 -43 169 C-42.67 169.33 -42.34 169.66 -42 170 C-41.95907063 172.33297433 -41.95758277 174.66705225 -42 177 C-42.66 177 -43.32 177 -44 177 C-44.103125 178.258125 -44.20625 179.51625 -44.3125 180.8125 C-45.10847462 187.94263885 -47.02883965 194.74685254 -49.75 201.375 C-51.35866115 205.78707802 -51.35866115 205.78707802 -50 210 C-47.87004092 212.06322407 -45.72805409 213.81388953 -43 215 C-39.05562363 214.76218937 -36.42212426 212.26596288 -33.375 209.9375 C-28.21265378 206 -28.21265378 206 -26 206 C-26 205.34 -26 204.68 -26 204 C-24.63582655 203.04507859 -23.26179317 202.10189505 -21.84765625 201.22265625 C-19.75720237 199.83933265 -17.87736019 198.27398907 -15.9375 196.6875 C-12.39027078 194 -12.39027078 194 -9.1875 194 C-7 195 -7 195 -4 197 C-4.495 199.97 -4.495 199.97 -5 203 C-6.01707031 202.75636719 -6.01707031 202.75636719 -7.0546875 202.5078125 C-10.44648211 202.04743041 -12.69118013 202.04504945 -16 203 C-20.09958905 207.18228969 -22.98845075 212.00407612 -26 217 C-27.25130597 218.97086788 -28.51946311 220.93125557 -29.8125 222.875 C-30.31394531 223.67679688 -30.81539063 224.47859375 -31.33203125 225.3046875 C-33 227 -33 227 -35.2109375 227.5625 C-39.37792824 226.72209851 -42.35706354 224.52561902 -45.8125 222.125 C-46.50537109 221.66480469 -47.19824219 221.20460938 -47.91210938 220.73046875 C-49.65128525 219.54817185 -51.33156212 218.28018504 -53 217 C-53 216.34 -53 215.68 -53 215 C-53.804375 214.731875 -54.60875 214.46375 -55.4375 214.1875 C-56.283125 213.795625 -57.12875 213.40375 -58 213 C-58.33 212.01 -58.66 211.02 -59 210 C-60.88316159 208.89163577 -60.88316159 208.89163577 -63 208 C-63.99 207.34 -64.98 206.68 -66 206 C-65.51440315 200.98216591 -63.09790704 197.86384311 -60.1875 193.9375 C-59.52911133 193.02000977 -59.52911133 193.02000977 -58.85742188 192.08398438 C-56.45053018 188.77584943 -53.95817677 185.84191655 -51 183 C-49.03937461 180.36329689 -48 178.87129117 -48 175.5625 C-49.44298924 171.86484006 -51.0636055 169.68648858 -54 167 C-56.85555282 166.4870581 -59.07038172 166.70207272 -62 167 C-62 167.66 -62 168.32 -62 169 C-63.20398438 169.27714844 -64.40796875 169.55429688 -65.6484375 169.83984375 C-67.22398907 170.20559679 -68.79950823 170.57148945 -70.375 170.9375 C-71.56609375 171.21110352 -71.56609375 171.21110352 -72.78125 171.49023438 C-73.54179687 171.66748047 -74.30234375 171.84472656 -75.0859375 172.02734375 C-75.7876709 172.18968506 -76.4894043 172.35202637 -77.21240234 172.51928711 C-79.08394574 172.9588074 -79.08394574 172.9588074 -81 174 C-84.25 174.6875 -84.25 174.6875 -88 174 C-96.12838159 165.27592141 -100.24563674 148.79056363 -100 137 C-89.50471401 132.68356714 -78.85133819 129.31251376 -68 126 C-68 121.38 -68 116.76 -68 112 C-70.58521484 111.29423828 -70.58521484 111.29423828 -73.22265625 110.57421875 C-75.50267558 109.94557145 -77.78261955 109.3166508 -80.0625 108.6875 C-81.7630957 108.2244043 -81.7630957 108.2244043 -83.49804688 107.75195312 C-89.20234596 106.17204521 -94.6426758 104.52703972 -100 102 C-100.44957141 92.55900039 -97.86760172 85.75159149 -93.98046875 77.27734375 C-92.65352347 74.19523579 -91.62284183 71.04553807 -90.61328125 67.84765625 C-90 66 -90 66 -89 64 C-83.52593439 63.53412208 -80.30149076 64.60815123 -75.3984375 66.984375 C-72.10329253 68.37971326 -68.80873657 68.95174147 -65.296875 69.5625 C-62.43280886 70.10803641 -59.75525455 71.05918137 -57 72 C-56.01 72 -55.02 72 -54 72 C-52.59886384 70.04690112 -51.26660533 68.04291182 -50 66 C-49.34 65.34 -48.68 64.68 -48 64 C-48.28372862 59.85479408 -49.81633709 57.57090681 -52.4375 54.4375 C-54.70795829 51.70252206 -56.4574385 49.19530596 -58 46 C-58.515625 45.525625 -59.03125 45.05125 -59.5625 44.5625 C-61.45263121 42.50800956 -61.6324247 40.72005723 -62 38 C-62.66 38 -63.32 38 -64 38 C-64 37.34 -64 36.68 -64 36 C-64.66 36 -65.32 36 -66 36 C-65.52267796 31.752808 -63.1748408 29.98278704 -60.0625 27.25 C-59.16660156 26.45078125 -58.27070313 25.6515625 -57.34765625 24.828125 C-55 23 -55 23 -53 23 C-53 22.34 -53 21.68 -53 21 C-50.19636464 18.91357369 -47.56781024 17.22448312 -44.3125 15.9375 C-41.95364133 15.17311536 -41.95364133 15.17311536 -40.5625 13.4375 C-38.09346175 11.16598481 -36.31612599 10.93367748 -33 11 C-30.96791208 12.9799831 -29.59552916 14.69893338 -28 17 C-26.81890058 18.52580943 -25.63106336 20.04642059 -24.4375 21.5625 C-23.84324219 22.33207031 -23.24898438 23.10164063 -22.63671875 23.89453125 C-21.36433839 25.53131649 -20.06280713 27.14545796 -18.75 28.75 C-16.94770721 31.06723359 -15.45533675 33.45316068 -14 36 C-12.41632253 35.85795259 -10.83306682 35.71119847 -9.25 35.5625 C-8.36828125 35.48128906 -7.4865625 35.40007812 -6.578125 35.31640625 C-3.7379189 35.02128823 -3.7379189 35.02128823 0 34 C0 22.78 0 11.56 0 0 Z " fill="#F5F7F3" transform="translate(227,60)"/>
<path d="M0 0 C0.33 1.32 0.66 2.64 1 4 C2.17095215 3.99476318 3.3419043 3.98952637 4.54833984 3.98413086 C8.88313028 3.96606242 13.21791737 3.95456121 17.55273438 3.94506836 C19.43066975 3.94003237 21.3086012 3.93320329 23.18652344 3.92456055 C25.88217132 3.91246287 28.57776747 3.90676443 31.2734375 3.90234375 C32.11619232 3.89718246 32.95894714 3.89202118 33.82723999 3.88670349 C39.77225659 3.88612829 39.77225659 3.88612829 42 5 C43.03485877 7.31808364 44.0355414 9.65175298 45 12 C45.495 12.495 45.495 12.495 46 13 C46.04092937 15.33297433 46.04241723 17.66705225 46 20 C45.34 20 44.68 20 44 20 C43.896875 21.258125 43.79375 22.51625 43.6875 23.8125 C42.89152538 30.94263885 40.97116035 37.74685254 38.25 44.375 C36.64133885 48.78707802 36.64133885 48.78707802 38 53 C40.12995908 55.06322407 42.27194591 56.81388953 45 58 C48.94437637 57.76218937 51.57787574 55.26596288 54.625 52.9375 C59.78734622 49 59.78734622 49 62 49 C62 48.34 62 47.68 62 47 C63.36417345 46.04507859 64.73820683 45.10189505 66.15234375 44.22265625 C68.24279763 42.83933265 70.12263981 41.27398907 72.0625 39.6875 C75.60972922 37 75.60972922 37 78.8125 37 C81 38 81 38 84 40 C83.67 41.98 83.34 43.96 83 46 C82.32195312 45.83757812 81.64390625 45.67515625 80.9453125 45.5078125 C77.55351789 45.04743041 75.30881987 45.04504945 72 46 C67.90041095 50.18228969 65.01154925 55.00407612 62 60 C60.74869403 61.97086788 59.48053689 63.93125557 58.1875 65.875 C57.68605469 66.67679687 57.18460938 67.47859375 56.66796875 68.3046875 C55 70 55 70 52.7890625 70.5625 C48.62207176 69.72209851 45.64293646 67.52561902 42.1875 65.125 C41.49462891 64.66480469 40.80175781 64.20460938 40.08789062 63.73046875 C38.34871475 62.54817185 36.66843788 61.28018504 35 60 C35 59.34 35 58.68 35 58 C34.195625 57.731875 33.39125 57.46375 32.5625 57.1875 C31.2940625 56.5996875 31.2940625 56.5996875 30 56 C29.67 55.01 29.34 54.02 29 53 C27.11683841 51.89163577 27.11683841 51.89163577 25 51 C24.01 50.34 23.02 49.68 22 49 C22.48559685 43.98216591 24.90209296 40.86384311 27.8125 36.9375 C28.25142578 36.32583984 28.69035156 35.71417969 29.14257812 35.08398438 C31.54946982 31.77584943 34.04182323 28.84191655 37 26 C38.96062539 23.36329689 40 21.87129117 40 18.5625 C38.55701076 14.86484006 36.9363945 12.68648858 34 10 C31.14444718 9.4870581 28.92961828 9.70207272 26 10 C26 10.66 26 11.32 26 12 C24.68 11.67 23.36 11.34 22 11 C28.625 8.125 28.625 8.125 32 7 C31.06615479 6.97494385 30.13230957 6.9498877 29.17016602 6.92407227 C25.71674811 6.82913072 22.2635104 6.72988742 18.81030273 6.62768555 C17.31360731 6.58428187 15.81686061 6.54261087 14.32006836 6.50268555 C12.17285688 6.44511384 10.02590479 6.38138284 7.87890625 6.31640625 C6.5854126 6.27974854 5.29191895 6.24309082 3.95922852 6.20532227 C1 6 1 6 0 5 C-0.04063832 3.33382885 -0.042721 1.66611905 0 0 Z " fill="#F1F5F0" transform="translate(139,217)"/>
<path d="M0 0 C0.33 0 0.66 0 1 0 C1 11.22 1 22.44 1 34 C1.66 34 2.32 34 3 34 C3.185625 32.5459375 3.185625 32.5459375 3.375 31.0625 C3.58125 30.051875 3.7875 29.04125 4 28 C4.99 27.505 4.99 27.505 6 27 C5.37914193 31.17139017 4.62903372 35.09777217 3 39 C0.32595863 40.91693327 -1.71918862 41.25917162 -5 42 C-5.495 42.99 -5.495 42.99 -6 44 C-8.31 44 -10.62 44 -13 44 C-13 43.34 -13 42.68 -13 42 C-13.57363281 41.72671875 -14.14726562 41.4534375 -14.73828125 41.171875 C-17.00938546 39.99513707 -19.07070943 38.68432803 -21.1875 37.25 C-21.96738281 36.72535156 -22.74726563 36.20070312 -23.55078125 35.66015625 C-25.19557066 34.5452671 -26.8387804 33.42804423 -28.48046875 32.30859375 C-29.27066406 31.77363281 -30.06085938 31.23867187 -30.875 30.6875 C-31.95394531 29.95080078 -31.95394531 29.95080078 -33.0546875 29.19921875 C-35.08731697 27.84386787 -35.08731697 27.84386787 -38 27 C-39.1875 24.9375 -39.1875 24.9375 -40 23 C-43.43950364 23.61198376 -45.51564485 24.92058847 -48.25 27.0625 C-49.30960938 27.88427734 -49.30960938 27.88427734 -50.390625 28.72265625 C-51.18726563 29.35494141 -51.18726563 29.35494141 -52 30 C-50.59055004 37.39961228 -48.37163352 44.27618916 -45.375 51.1875 C-43.49840713 55.55494587 -42.3227301 59.26662518 -42 64 C-43.485 63.505 -43.485 63.505 -45 63 C-45.33 63.66 -45.66 64.32 -46 65 C-46.66 64.67 -47.32 64.34 -48 64 C-48.13535156 63.24847656 -48.27070313 62.49695313 -48.41015625 61.72265625 C-49.11014889 58.4915644 -50.32932863 56.95766328 -52.4375 54.4375 C-54.70795829 51.70252206 -56.4574385 49.19530596 -58 46 C-58.515625 45.525625 -59.03125 45.05125 -59.5625 44.5625 C-61.45263121 42.50800956 -61.6324247 40.72005723 -62 38 C-62.66 38 -63.32 38 -64 38 C-64 37.34 -64 36.68 -64 36 C-64.66 36 -65.32 36 -66 36 C-65.52267796 31.752808 -63.1748408 29.98278704 -60.0625 27.25 C-59.16660156 26.45078125 -58.27070313 25.6515625 -57.34765625 24.828125 C-55 23 -55 23 -53 23 C-53 22.34 -53 21.68 -53 21 C-50.19636464 18.91357369 -47.56781024 17.22448312 -44.3125 15.9375 C-41.95364133 15.17311536 -41.95364133 15.17311536 -40.5625 13.4375 C-38.09346175 11.16598481 -36.31612599 10.93367748 -33 11 C-30.96791208 12.9799831 -29.59552916 14.69893338 -28 17 C-26.81890058 18.52580943 -25.63106336 20.04642059 -24.4375 21.5625 C-23.84324219 22.33207031 -23.24898437 23.10164063 -22.63671875 23.89453125 C-21.36433839 25.53131649 -20.06280713 27.14545796 -18.75 28.75 C-16.94770721 31.06723359 -15.45533675 33.45316068 -14 36 C-12.41632253 35.85795259 -10.83306682 35.71119847 -9.25 35.5625 C-8.36828125 35.48128906 -7.4865625 35.40007812 -6.578125 35.31640625 C-3.7379189 35.02128823 -3.7379189 35.02128823 0 34 C0 22.78 0 11.56 0 0 Z " fill="#EFF3ED" transform="translate(227,60)"/>
<path d="M0 0 C0.66 0 1.32 0 2 0 C1.67 1.65 1.34 3.3 1 5 C4.96 5 8.92 5 13 5 C13 16.88 13 28.76 13 41 C3.76 41 -5.48 41 -15 41 C-11.62539683 29.75132275 -11.62539683 29.75132275 -9.5 24.8125 C-9.06945312 23.801875 -8.63890625 22.79125 -8.1953125 21.75 C-7.50638553 20.16501769 -6.81507591 18.58105694 -6.1171875 17 C-4.10386177 12.42233308 -2.52962031 7.75472338 -1 3 C-0.67 2.01 -0.34 1.02 0 0 Z " fill="#AFB91D" transform="translate(247,294)"/>
<path d="M0 0 C11.55 0 23.1 0 35 0 C35 27.06 35 54.12 35 82 C-3 82 -3 82 -10 79 C-6.90842747 77.45421373 -4.31526981 78.39722367 -1 79 C-0.67 79.33 -0.34 79.66 0 80 C16.335 80.495 16.335 80.495 33 81 C33 54.6 33 28.2 33 1 C22.11 1 11.22 1 0 1 C0 0.67 0 0.34 0 0 Z " fill="#447B99" transform="translate(241,138)"/>
<path d="M0 0 C0.33 1.32 0.66 2.64 1 4 C2.17095215 3.99476318 3.3419043 3.98952637 4.54833984 3.98413086 C8.88313028 3.96606242 13.21791737 3.95456121 17.55273438 3.94506836 C19.43066975 3.94003237 21.3086012 3.93320329 23.18652344 3.92456055 C25.88217132 3.91246287 28.57776747 3.90676443 31.2734375 3.90234375 C32.11619232 3.89718246 32.95894714 3.89202118 33.82723999 3.88670349 C39.77225659 3.88612829 39.77225659 3.88612829 42 5 C43.03485877 7.31808364 44.0355414 9.65175298 45 12 C45.495 12.495 45.495 12.495 46 13 C46.04092937 15.33297433 46.04241723 17.66705225 46 20 C45.34 20 44.68 20 44 20 C43.67 22.97 43.34 25.94 43 29 C42.67 29 42.34 29 42 29 C42 27.02 42 25.04 42 23 C40.02 23.99 40.02 23.99 38 25 C38.350625 24.443125 38.70125 23.88625 39.0625 23.3125 C40.2888452 20.28751517 40.09759268 19.07325951 39 16 C37.0666006 12.56319759 37.0666006 12.56319759 34 10 C31.14444718 9.4870581 28.92961828 9.70207272 26 10 C26 10.66 26 11.32 26 12 C24.68 11.67 23.36 11.34 22 11 C28.625 8.125 28.625 8.125 32 7 C31.06615479 6.97494385 30.13230957 6.9498877 29.17016602 6.92407227 C25.71674811 6.82913072 22.2635104 6.72988742 18.81030273 6.62768555 C17.31360731 6.58428187 15.81686061 6.54261087 14.32006836 6.50268555 C12.17285688 6.44511384 10.02590479 6.38138284 7.87890625 6.31640625 C6.5854126 6.27974854 5.29191895 6.24309082 3.95922852 6.20532227 C1 6 1 6 0 5 C-0.04063832 3.33382885 -0.042721 1.66611905 0 0 Z " fill="#CAD9DA" transform="translate(139,217)"/>
<path d="M0 0 C4.29 0 8.58 0 13 0 C13 38.28 13 76.56 13 116 C12.67 116 12.34 116 12 116 C12 78.05 12 40.1 12 1 C8.37 1 4.74 1 1 1 C0.896875 2.051875 0.79375 3.10375 0.6875 4.1875 C0.02266585 7.87430754 -0.88566296 9.96638599 -3 13 C-4 11 -4 11 -3.1875 8.1875 C-2.165066 5.44307189 -1.08769018 2.71922545 0 0 Z " fill="#DFE8ED" transform="translate(261,261)"/>
<path d="M0 0 C0.66 0 1.32 0 2 0 C1.67 1.65 1.34 3.3 1 5 C4.96 5 8.92 5 13 5 C13 16.88 13 28.76 13 41 C3.76 41 -5.48 41 -15 41 C-15 40.67 -15 40.34 -15 40 C-6.09 40 2.82 40 12 40 C12 29.11 12 18.22 12 7 C7.71 7 3.42 7 -1 7 C-0.67 4.69 -0.34 2.38 0 0 Z " fill="#CBD380" transform="translate(247,294)"/>
<path d="M0 0 C2.4375 0.8125 2.4375 0.8125 5.4375 2.8125 C5.1075 4.7925 4.7775 6.7725 4.4375 8.8125 C2.62424449 8.69898483 0.81186643 8.57137039 -1 8.4375 C-2.00933594 8.36789062 -3.01867187 8.29828125 -4.05859375 8.2265625 C-4.88488281 8.08992188 -5.71117187 7.95328125 -6.5625 7.8125 C-6.8925 7.1525 -7.2225 6.4925 -7.5625 5.8125 C-9.5425 6.8025 -9.5425 6.8025 -11.5625 7.8125 C-3.69788462 -0.27057692 -3.69788462 -0.27057692 0 0 Z " fill="#DBE4E3" transform="translate(217.5625,254.1875)"/>
<path d="M0 0 C1.47968324 0.14049518 2.95874516 0.28754826 4.4375 0.4375 C5.67306641 0.55931641 5.67306641 0.55931641 6.93359375 0.68359375 C9 1 9 1 10 2 C12.44608998 2.15980437 14.86731058 2.25929447 17.31640625 2.31640625 C18.41298805 2.3475779 18.41298805 2.3475779 19.53172302 2.37937927 C21.87521656 2.44495024 24.21882539 2.50379432 26.5625 2.5625 C28.14779855 2.60567808 29.73308529 2.64929213 31.31835938 2.69335938 C35.21212037 2.8006392 39.10599772 2.9018849 43 3 C43 3.33 43 3.66 43 4 C38.00125335 4.0745169 33.00283467 4.12877437 28.00366211 4.16479492 C26.30536258 4.17982126 24.60710145 4.20024823 22.90893555 4.22631836 C20.45872482 4.26297449 18.00903 4.27978789 15.55859375 4.29296875 C14.43160316 4.31619453 14.43160316 4.31619453 13.28184509 4.33988953 C8.13219331 4.34150969 4.61197078 3.30465629 0 1 C0 0.67 0 0.34 0 0 Z " fill="#7BA2B7" transform="translate(231,216)"/>
<path d="M0 0 C4.29 0 8.58 0 13 0 C13 0.33 13 0.66 13 1 C9.04 1 5.08 1 1 1 C0.896875 2.051875 0.79375 3.10375 0.6875 4.1875 C0.02266585 7.87430754 -0.88566296 9.96638599 -3 13 C-4 11 -4 11 -3.1875 8.1875 C-2.165066 5.44307189 -1.08769018 2.71922545 0 0 Z " fill="#C0D2DC" transform="translate(261,261)"/>
<path d="M0 0 C-5.45940276 3.63960184 -11.40387016 5.5073946 -18 5 C-15.11550348 2.6229612 -12.57662226 1.31862494 -9 0.25 C-8.154375 -0.01296875 -7.30875 -0.2759375 -6.4375 -0.546875 C-3.8907775 -1.02030418 -2.4249914 -0.83078409 0 0 Z " fill="#E3E6B0" transform="translate(152,190)"/>
<path d="M0 0 C0.33 0.66 0.66 1.32 1 2 C0.34 2 -0.32 2 -1 2 C-1.2475 2.556875 -1.495 3.11375 -1.75 3.6875 C-3.22924818 6.42410913 -4.93467439 8.67650869 -7 11 C-7.66 11 -8.32 11 -9 11 C-8.46324097 7.14896699 -6.88399077 5.68202413 -3.9375 3.25 C-3.20402344 2.63640625 -2.47054687 2.0228125 -1.71484375 1.390625 C-1.14894531 0.93171875 -0.58304688 0.4728125 0 0 Z " fill="#ECEEC8" transform="translate(170,85)"/>
<path d="M0 0 C-1.38188453 3.21043882 -2.92421903 5.04936365 -5.625 7.25 C-6.57246094 8.03117188 -6.57246094 8.03117188 -7.5390625 8.828125 C-8.02117187 9.21484375 -8.50328125 9.6015625 -9 10 C-9 7 -9 7 -7.5390625 5.17578125 C-6.90742188 4.56089844 -6.27578125 3.94601563 -5.625 3.3125 C-4.68527344 2.37857422 -4.68527344 2.37857422 -3.7265625 1.42578125 C-2 0 -2 0 0 0 Z " fill="#C2D4DE" transform="translate(224,147)"/>
<path d="M0 0 C0.66 0 1.32 0 2 0 C2 1.32 2 2.64 2 4 C2.66 4 3.32 4 4 4 C3.67 6.64 3.34 9.28 3 12 C2.67 12 2.34 12 2 12 C2 10.02 2 8.04 2 6 C0.02 6.99 0.02 6.99 -2 8 C-1.67 7.4225 -1.34 6.845 -1 6.25 C0.27075898 3.80116138 0.27075898 3.80116138 0 0 Z " fill="#E1E8D6" transform="translate(179,234)"/>
<path d="M0 0 C5.66104589 0.49658297 9.87674471 1.54510684 15 4 C11.84651502 5.57674249 9.39455853 4.67891171 6 4 C2.5625 2.4375 2.5625 2.4375 0 1 C0 0.67 0 0.34 0 0 Z " fill="#CAD064" transform="translate(148,125)"/>
<path d="M0 0 C2 3 2 3 1.625 5.1875 C1.41875 5.785625 1.2125 6.38375 1 7 C0.34 6.67 -0.32 6.34 -1 6 C-1.33 6.66 -1.66 7.32 -2 8 C-2.66 7.67 -3.32 7.34 -4 7 C-4 5.35 -4 3.7 -4 2 C-2.68 2.33 -1.36 2.66 0 3 C0 2.01 0 1.02 0 0 Z " fill="#C4D4D1" transform="translate(183,117)"/>
<path d="M0 0 C0.99 0.33 1.98 0.66 3 1 C3 2.32 3 3.64 3 5 C2.34 5 1.68 5 1 5 C1 6.32 1 7.64 1 9 C0.34 9 -0.32 9 -1 9 C-1.33 9.66 -1.66 10.32 -2 11 C-1.855625 10.484375 -1.71125 9.96875 -1.5625 9.4375 C-0.84190099 6.31490429 -0.42733561 3.17449308 0 0 Z " fill="#50838C" transform="translate(222,256)"/>
<path d="M0 0 C1.33332095 2.6666419 0.67102033 4.16680303 0 7 C-0.66 7 -1.32 7 -2 7 C-2.33 8.32 -2.66 9.64 -3 11 C-4 9 -4 9 -3.1875 6.0625 C-2 3 -2 3 0 0 Z " fill="#527F4A" transform="translate(209,292)"/>
<path d="M0 0 C1.33332095 2.6666419 0.67102033 4.16680303 0 7 C-0.66 7 -1.32 7 -2 7 C-2.33 8.32 -2.66 9.64 -3 11 C-4 9 -4 9 -3.1875 6.0625 C-2 3 -2 3 0 0 Z " fill="#517E4B" transform="translate(214,280)"/>
<path d="M0 0 C1 2 1 2 0.51171875 4.12890625 C0.23972656 4.93199219 -0.03226562 5.73507813 -0.3125 6.5625 C-0.57675781 7.36816406 -0.84101562 8.17382812 -1.11328125 9.00390625 C-2 11 -2 11 -4 12 C-3.5317879 7.22423661 -2.75668002 3.95523655 0 0 Z " fill="#E2E5AD" transform="translate(101,120)"/>
<path d="M0 0 C0 3.25811062 -0.5522078 5.10441559 -2 8 C-2.99 8.33 -3.98 8.66 -5 9 C-3.7508258 5.54074837 -2.32472205 2.85306797 0 0 Z " fill="#C6CD59" transform="translate(118,90)"/>
<path d="M0 0 C1.46534385 3.80989402 0.55203911 6.3241179 -1 10 C-1.99 10.495 -1.99 10.495 -3 11 C-2.32829194 7.1936543 -1.27253436 3.64793184 0 0 Z " fill="#5F8EA8" transform="translate(186,346)"/>
</svg>
