<?xml version="1.0" encoding="UTF-8"?>
<svg version="1.1" xmlns="http://www.w3.org/2000/svg" width="225" height="225">
<path d="M0 0 C74.25 0 148.5 0 225 0 C225 74.25 225 148.5 225 225 C150.75 225 76.5 225 0 225 C0 150.75 0 76.5 0 0 Z " fill="#FDFDFD" transform="translate(0,0)"/>
<path d="M0 0 C1.22500717 -0.00810448 1.22500717 -0.00810448 2.47476196 -0.01637268 C5.17088183 -0.02886819 7.86593578 -0.01236685 10.56201172 0.00561523 C12.43480485 0.00546029 14.30759831 0.00397216 16.1803894 0.00120544 C20.10282588 -0.00017881 24.0248968 0.01238631 27.94726562 0.03515625 C32.98268566 0.0635802 38.01750003 0.06079333 43.05296516 0.04806614 C46.9184998 0.04112309 50.78389359 0.04888181 54.64941025 0.06132317 C56.50661556 0.0658483 58.36383592 0.06616524 60.22104263 0.06225777 C62.81174168 0.05935797 65.40159513 0.07579126 67.9921875 0.09765625 C68.7641748 0.0931546 69.53616211 0.08865295 70.33154297 0.08401489 C72.46414185 0.11402893 72.46414185 0.11402893 75.86669922 0.50170898 C78.23061882 4.04758839 78.11025507 5.51674581 78.09375 9.71728516 C78.09359894 10.99838669 78.09344788 12.27948822 78.09329224 13.59941101 C78.08307895 14.99783483 78.07264696 16.39625706 78.06201172 17.79467773 C78.058281 19.22528384 78.0554343 20.6558925 78.05343628 22.08650208 C78.04580444 25.84963043 78.02615991 29.6126041 78.00402832 33.37567139 C77.98356016 37.21649076 77.97443249 41.05733515 77.96435547 44.89819336 C77.94291351 52.43276904 77.90878309 59.96721733 77.86669922 67.50170898 C73.09326172 66.71264648 73.09326172 66.71264648 71.05419922 64.81420898 C69.48031162 61.74926997 69.37968427 59.91081364 69.86669922 56.50170898 C71.74169922 53.62670898 71.74169922 53.62670898 73.86669922 51.50170898 C74.52669922 51.50170898 75.18669922 51.50170898 75.86669922 51.50170898 C74.5969495 47.0864879 74.5969495 47.0864879 71.86669922 43.50170898 C69.27607763 43.76077114 68.03408747 44.35740877 66.05419922 46.06420898 C62.85794228 48.1646064 60.60619475 47.96914593 56.86669922 47.50170898 C52.72628256 44.70413016 51.95854982 41.23306158 50.86669922 36.50170898 C48.55669922 36.50170898 46.24669922 36.50170898 43.86669922 36.50170898 C43.19756493 39.34552973 42.87225706 41.56840312 43.11669922 44.50170898 C42.86669922 47.50170898 42.86669922 47.50170898 41.11669922 50.37670898 C36.77430559 53.21596636 33.57637636 52.77174595 28.51123047 52.38452148 C27.2021875 52.4425293 27.2021875 52.4425293 25.86669922 52.50170898 C23.63557414 55.24747139 23.63557414 55.24747139 23.86669922 58.00170898 C25.28703489 61.55254816 27.47315486 61.94067858 30.86669922 63.50170898 C33.27732195 65.83197763 33.80167227 67.11967569 34.36669922 70.43920898 C33.70748675 74.47688536 31.74036639 75.69988349 28.86669922 78.50170898 C28.2818136 81.130463 28.2818136 81.130463 28.86669922 83.50170898 C30.68873503 85.73137646 30.68873503 85.73137646 33.30419922 85.81420898 C35.91312838 85.78528987 35.91312838 85.78528987 37.17919922 84.00170898 C39.54723908 81.89678466 41.78036639 81.96623545 44.85888672 82.07983398 C48.31660068 82.80635754 49.85266568 84.73241286 51.86669922 87.50170898 C51.86669922 88.82170898 51.86669922 90.14170898 51.86669922 91.50170898 C44.09557761 91.59435927 36.32458519 91.66544823 28.55305004 91.70895767 C24.94442943 91.72983949 21.33618645 91.75816663 17.7277832 91.8034668 C14.24590147 91.84690541 10.76438312 91.87084161 7.28225136 91.88121796 C5.30622487 91.89221403 3.33034474 91.92344351 1.35453796 91.95489502 C0.15351944 91.95519714 -1.04749908 91.95549927 -2.28491211 91.95581055 C-3.87375969 91.96913422 -3.87375969 91.96913422 -5.4947052 91.98272705 C-8.13330078 91.50170898 -8.13330078 91.50170898 -9.93632507 89.66082764 C-12.1399348 85.68593087 -12.25120238 82.55796196 -12.23095703 78.08374023 C-12.22773437 76.83012695 -12.22451172 75.57651367 -12.22119141 74.28491211 C-12.2128125 72.97458008 -12.20443359 71.66424805 -12.19580078 70.31420898 C-12.19078396 68.97892417 -12.18622137 67.64363757 -12.18212891 66.30834961 C-12.17032773 63.03942425 -12.15386375 59.77058907 -12.13330078 56.50170898 C-5.38330078 56.32202148 -5.38330078 56.32202148 -3.13330078 57.93920898 C-1.6029831 61.86064803 -2.41124106 65.43033608 -3.13330078 69.50170898 C-1.15330078 69.50170898 0.82669922 69.50170898 2.86669922 69.50170898 C3.21732422 68.53233398 3.56794922 67.56295898 3.92919922 66.56420898 C5.86669922 63.50170898 5.86669922 63.50170898 9.30419922 62.37670898 C12.86669922 62.50170898 12.86669922 62.50170898 15.05419922 64.50170898 C15.65232422 65.16170898 16.25044922 65.82170898 16.86669922 66.50170898 C19.08528175 66.36529521 19.08528175 66.36529521 20.86669922 65.50170898 C21.6495257 63.70971427 21.6495257 63.70971427 21.86669922 61.50170898 C21.37169922 60.88295898 20.87669922 60.26420898 20.36669922 59.62670898 C18.86669922 57.50170898 18.86669922 57.50170898 18.67919922 54.50170898 C20.04915168 51.04077645 20.72284882 50.72988418 23.92919922 49.12670898 C25.23249111 48.56324711 26.54263001 48.01444649 27.86669922 47.50170898 C27.86669922 45.52170898 27.86669922 43.54170898 27.86669922 41.50170898 C27.16802734 41.53651367 26.46935547 41.57131836 25.74951172 41.60717773 C24.83943359 41.63424805 23.92935547 41.66131836 22.99169922 41.68920898 C22.08677734 41.72401367 21.18185547 41.75881836 20.24951172 41.79467773 C19.07001953 41.6496582 19.07001953 41.6496582 17.86669922 41.50170898 C15.73083244 38.29790881 15.63537747 37.48230931 15.74169922 33.81420898 C15.75974609 33.0059668 15.77779297 32.19772461 15.79638672 31.36499023 C15.81958984 30.75010742 15.84279297 30.13522461 15.86669922 29.50170898 C13.88669922 29.17170898 11.90669922 28.84170898 9.86669922 28.50170898 C9.34076172 29.95577148 9.34076172 29.95577148 8.80419922 31.43920898 C6.86669922 34.50170898 6.86669922 34.50170898 3.42919922 35.62670898 C-0.13330078 35.50170898 -0.13330078 35.50170898 -2.32080078 33.50170898 C-2.91892578 32.84170898 -3.51705078 32.18170898 -4.13330078 31.50170898 C-6.35188331 31.63812275 -6.35188331 31.63812275 -8.13330078 32.50170898 C-8.91612726 34.2937037 -8.91612726 34.2937037 -9.13330078 36.50170898 C-8.63830078 37.12045898 -8.14330078 37.73920898 -7.63330078 38.37670898 C-6.13330078 40.50170898 -6.13330078 40.50170898 -6.32080078 43.62670898 C-7.13330078 46.50170898 -7.13330078 46.50170898 -9.13330078 48.50170898 C-10.12330078 48.50170898 -11.11330078 48.50170898 -12.13330078 48.50170898 C-12.23218167 42.30872256 -12.30477564 36.11619566 -12.35302734 29.92260742 C-12.37314204 27.81575517 -12.40043745 25.70895873 -12.43505859 23.60229492 C-12.48358246 20.57383452 -12.50627095 17.5461122 -12.52392578 14.51733398 C-12.54457092 13.57553284 -12.56521606 12.63373169 -12.58648682 11.66339111 C-12.58678894 10.78278015 -12.58709106 9.90216919 -12.58740234 8.99487305 C-12.59628479 8.22210022 -12.60516724 7.44932739 -12.61431885 6.65313721 C-11.12378601 -0.01350308 -5.81700562 -0.07323321 0 0 Z " fill="#E3E3E3" transform="translate(75.13330078125,47.498291015625)"/>
<path d="M0 0 C-2.87060311 9.03823949 -6.33504312 17.84479566 -9.75 26.6875 C-10.07481354 27.53049652 -10.39962708 28.37349304 -10.73428345 29.24203491 C-16.44130108 44.05252054 -22.23742965 58.82729204 -28.07519531 73.58666992 C-28.3732608 74.34062042 -28.67132629 75.09457092 -28.97842407 75.87136841 C-29.55403462 77.32224186 -30.13253447 78.77197304 -30.71420288 80.22042847 C-31.89233665 83.1582386 -33.02844744 86.08290266 -34.05615234 89.07788086 C-36.21534989 95.2627107 -38.82654551 98.31510344 -44.25 101.9375 C-44.95527832 102.43709229 -45.66055664 102.93668457 -46.38720703 103.45141602 C-48.57534752 104.99254139 -50.78449092 106.49856425 -53 108 C-54.32636636 108.91544281 -55.65191511 109.8320716 -56.9765625 110.75 C-59.60470041 112.56557671 -62.24175355 114.36734984 -64.8828125 116.1640625 C-69.2282461 119.13659702 -73.49164941 122.21699774 -77.75 125.3125 C-86.70211346 131.81787861 -95.75791177 138.16956882 -104.84521484 144.484375 C-106.90313174 145.93186516 -108.92978434 147.41628891 -110.95703125 148.90625 C-114 151 -114 151 -116 151 C-116.57894379 145.15166687 -117.14815327 139.30249047 -117.70898438 133.45239258 C-117.90042663 131.46907009 -118.09436755 129.48598692 -118.29101562 127.50317383 C-118.57585583 124.62643311 -118.85120819 121.74890468 -119.125 118.87109375 C-119.21249512 118.00794052 -119.29999023 117.14478729 -119.39013672 116.25547791 C-120.11309506 108.49390371 -120.08264539 100.78871313 -120 93 C-119.21961365 92.99635437 -118.43922729 92.99270874 -117.63519287 92.98895264 C-110.27808729 92.95107426 -102.92148819 92.89422428 -95.56470871 92.81609726 C-91.78254215 92.77659994 -88.00060917 92.74442289 -84.21826172 92.72900391 C-80.56752365 92.7138516 -76.91742766 92.67943304 -73.2669754 92.63169098 C-71.87479485 92.61686216 -70.48252263 92.60895812 -69.09026337 92.60811615 C-67.13916835 92.60574966 -65.18816264 92.57640445 -63.23730469 92.54589844 C-61.57184601 92.53257477 -61.57184601 92.53257477 -59.8727417 92.51898193 C-56.28772116 91.87132159 -55.18833065 90.87341077 -53 88 C-50.94621054 84.09992988 -50.73131027 80.74587841 -50.68115234 76.3737793 C-50.67110672 75.72931351 -50.6610611 75.08484772 -50.65071106 74.42085266 C-50.61999064 72.30531652 -50.60287552 70.18990628 -50.5859375 68.07421875 C-50.56721683 66.60161769 -50.54764274 65.12902725 -50.5272522 63.65644836 C-50.47601977 59.79155758 -50.43634672 55.92663205 -50.39910889 52.06158447 C-50.3590133 48.11323515 -50.30794636 44.16502924 -50.2578125 40.21679688 C-50.16115856 32.47796314 -50.07672037 24.73905975 -50 17 C-24.15091833 7.21323187 -24.15091833 7.21323187 -12.625 3.4375 C-11.60535156 3.09654297 -10.58570313 2.75558594 -9.53515625 2.40429688 C-2.26905181 0 -2.26905181 0 0 0 Z " fill="#010101" transform="translate(209,51)"/>
<path d="M0 0 C1.2516394 -0.0076664 1.2516394 -0.0076664 2.52856445 -0.01548767 C5.28994902 -0.02940108 8.05108453 -0.02842578 10.8125 -0.02612305 C12.72916762 -0.03000865 14.64583437 -0.03434303 16.5625 -0.03910828 C20.58075756 -0.04657398 24.59892726 -0.0462764 28.6171875 -0.04101562 C33.77243754 -0.03521658 38.92732883 -0.0521608 44.08251953 -0.0753603 C48.04071158 -0.09007384 51.99881671 -0.09097266 55.95703125 -0.08785057 C57.85808015 -0.08836485 59.75913379 -0.09362254 61.66015625 -0.10366249 C64.31534326 -0.11596536 66.96982473 -0.1092728 69.625 -0.09765625 C70.41366455 -0.10529999 71.2023291 -0.11294373 72.01489258 -0.12081909 C77.2853057 -0.06971592 77.2853057 -0.06971592 79.76171875 1.54792786 C82.32559167 5.76109513 81.96631909 10.26941526 81.97363281 15.0690918 C81.98108017 16.24057014 81.98108017 16.24057014 81.98867798 17.43571472 C82.00326215 20.01485073 82.01009495 22.59392526 82.015625 25.1730957 C82.02137904 26.96904501 82.02713674 28.76499431 82.03289795 30.5609436 C82.04339693 34.32521856 82.04924698 38.08947223 82.05273438 41.85375977 C82.05822022 46.67124783 82.08225481 51.48845342 82.11070633 56.30585289 C82.12935133 60.015379 82.13453928 63.72483727 82.13607025 67.43440628 C82.13909253 69.2101763 82.14710671 70.98594525 82.16025543 72.76166916 C82.17735687 75.2484754 82.17542599 77.73459396 82.16894531 80.22143555 C82.1781601 80.95098953 82.18737488 81.68054352 82.1968689 82.4322052 C82.15754481 87.26206348 81.36311817 91.72404004 77.8125 95.2746582 C75.15613959 95.39107048 72.52542633 95.44266365 69.86791992 95.45166016 C69.035392 95.45823135 68.20286407 95.46480255 67.34510803 95.47157288 C64.57772747 95.49135556 61.81040129 95.50297962 59.04296875 95.51293945 C57.62863273 95.51905274 57.62863273 95.51905274 56.18572426 95.52528954 C51.19502606 95.54617175 46.20435553 95.56046397 41.21362305 95.56982422 C36.05163307 95.58089165 30.89007382 95.61528922 25.7282362 95.65499592 C21.76572352 95.68111094 17.80331421 95.68951151 13.84072304 95.6931057 C11.93768722 95.69798512 10.03465642 95.70963748 8.13170433 95.72814369 C5.46920819 95.75242618 2.80783605 95.75159024 0.14526367 95.74462891 C-0.64294769 95.75743896 -1.43115906 95.77024902 -2.24325562 95.78344727 C-5.62474922 95.75117927 -7.76764573 95.56458069 -10.58329773 93.62028503 C-14.04794062 88.55436569 -14.48369689 83.61061078 -14.4621582 77.62036133 C-14.46726913 76.87809799 -14.47238007 76.13583466 -14.47764587 75.37107849 C-14.49147587 72.93260498 -14.4905904 70.49441612 -14.48828125 68.0559082 C-14.49217123 66.35249731 -14.49650653 64.64908739 -14.50126648 62.94567871 C-14.50871407 59.38164113 -14.50844761 55.81770265 -14.50317383 52.25366211 C-14.49737497 47.69402832 -14.5143272 43.13480018 -14.5375185 38.57523346 C-14.55227149 35.05956667 -14.55312552 31.54399731 -14.55000877 28.02830505 C-14.550521 26.34743953 -14.55574011 24.66656841 -14.56582069 22.98573303 C-14.57820119 20.63320745 -14.57138479 18.2814687 -14.55981445 15.92895508 C-14.56745819 15.23994614 -14.57510193 14.55093719 -14.58297729 13.84104919 C-14.53348305 9.27240698 -13.61802064 6.13988732 -11.1875 2.2746582 C-7.40204775 -0.24897663 -4.38525962 -0.01377533 0 0 Z M-9.66744995 4.02519226 C-11.37656537 6.55444907 -11.67631357 7.7478772 -11.64160156 10.76782227 C-11.64129944 11.64843323 -11.64099731 12.52904419 -11.64068604 13.43634033 C-11.62004089 14.37814148 -11.59939575 15.31994263 -11.578125 16.2902832 C-11.57246521 17.26124939 -11.56680542 18.23221558 -11.56097412 19.23260498 C-11.53860311 22.3304599 -11.48840473 25.42715354 -11.4375 28.5246582 C-11.41743597 30.62620399 -11.39918503 32.72776792 -11.3828125 34.8293457 C-11.3387358 39.9782299 -11.26970258 45.12624724 -11.1875 50.2746582 C-9.24675139 49.99848287 -9.24675139 49.99848287 -7.1875 49.2746582 C-4.85453749 46.44748608 -4.85453749 46.44748608 -5.4375 43.2121582 C-5.9468244 40.1751992 -5.9468244 40.1751992 -8.1875 38.2746582 C-7.8125 36.1496582 -7.8125 36.1496582 -7.1875 34.2746582 C-5.4375 33.5246582 -5.4375 33.5246582 -3.1875 33.2746582 C-2.2903125 34.2646582 -2.2903125 34.2646582 -1.375 35.2746582 C0.75728201 37.65822643 0.75728201 37.65822643 4.375 37.3996582 C8.06423581 36.59622353 8.06423581 36.59622353 9.75 33.2121582 C10.2759375 31.7580957 10.2759375 31.7580957 10.8125 30.2746582 C12.7925 30.6046582 14.7725 30.9346582 16.8125 31.2746582 C16.78929688 31.88954102 16.76609375 32.50442383 16.7421875 33.13793945 C16.72414063 33.94618164 16.70609375 34.75442383 16.6875 35.5871582 C16.66429688 36.38766602 16.64109375 37.18817383 16.6171875 38.01293945 C16.65432678 40.55854397 16.65432678 40.55854397 18.8125 43.2746582 C21.24943311 43.63881867 21.24943311 43.63881867 23.9375 43.4621582 C24.84757812 43.43508789 25.75765625 43.40801758 26.6953125 43.38012695 C27.39398438 43.34532227 28.09265625 43.31051758 28.8125 43.2746582 C28.8125 45.2546582 28.8125 47.2346582 28.8125 49.2746582 C27.96365234 49.60336914 27.96365234 49.60336914 27.09765625 49.9387207 C24.84834204 50.91118344 22.83579101 51.88895889 20.8125 53.2746582 C19.40707301 56.20376963 19.40707301 56.20376963 19.8125 59.2746582 C20.77363866 60.63627131 21.77134159 61.97321019 22.8125 63.2746582 C22.5 65.5246582 22.5 65.5246582 21.8125 67.2746582 C20.0625 68.0246582 20.0625 68.0246582 17.8125 68.2746582 C17.214375 67.6146582 16.61625 66.9546582 16 66.2746582 C13.86771799 63.89108998 13.86771799 63.89108998 10.25 64.1496582 C6.56076419 64.95309288 6.56076419 64.95309288 4.875 68.3371582 C4.524375 69.3065332 4.17375 70.2759082 3.8125 71.2746582 C1.8325 71.2746582 -0.1475 71.2746582 -2.1875 71.2746582 C-2.08050781 70.67137695 -1.97351563 70.0680957 -1.86328125 69.4465332 C-1.08203746 64.49792572 -1.08203746 64.49792572 -2.1875 59.7121582 C-5.10667263 57.61400287 -7.68018311 58.18129213 -11.1875 58.2746582 C-11.27485463 62.81620298 -11.32801247 67.35753052 -11.375 71.8996582 C-11.41270508 73.82745117 -11.41270508 73.82745117 -11.45117188 75.79418945 C-11.46083984 77.03813477 -11.47050781 78.28208008 -11.48046875 79.5637207 C-11.4961792 80.70534668 -11.51188965 81.84697266 -11.52807617 83.02319336 C-11.12399504 86.8809371 -10.00412703 90.45803117 -7.1875 93.2746582 C-5.3156906 93.36852201 -3.4403194 93.39209624 -1.56616211 93.38818359 C-0.36499252 93.38810806 0.83617706 93.38803253 2.07374573 93.38795471 C4.03464394 93.38021278 4.03464394 93.38021278 6.03515625 93.37231445 C7.37894132 93.37045019 8.72272707 93.36902632 10.06651306 93.36802673 C13.60932277 93.36420222 17.1520917 93.35437252 20.69488525 93.34332275 C24.30765227 93.3331072 27.92042584 93.3285288 31.53320312 93.32348633 C38.6263188 93.31275018 45.71940674 93.29567456 52.8125 93.2746582 C52.34979599 89.00107042 52.34979599 89.00107042 50.25 85.3996582 C46.53888748 83.68683704 43.89509236 83.88583988 39.8125 84.2746582 C38.12451173 85.71216011 38.12451173 85.71216011 36.8125 87.2746582 C34.25 87.5871582 34.25 87.5871582 31.8125 87.2746582 C29.8125 85.2746582 29.8125 85.2746582 29.375 82.9621582 C29.8125 80.2746582 29.8125 80.2746582 32.3125 77.8371582 C35.05778767 75.49697773 35.05778767 75.49697773 35.375 72.2746582 C34.66826885 68.50542538 33.55388519 66.94390168 30.8125 64.2746582 C27.69587092 62.4648668 27.69587092 62.4648668 24.8125 61.2746582 C25.1425 59.2946582 25.4725 57.3146582 25.8125 55.2746582 C28.95520495 54.48898197 31.61144995 54.30640479 34.8125 54.5246582 C38.10140493 54.53711618 38.8445925 54.25460039 41.8125 52.3996582 C44.32016445 48.4814325 44.18634719 45.92740146 43.890625 41.3840332 C43.85195312 40.33989258 43.85195312 40.33989258 43.8125 39.2746582 C44.8125 38.2746582 44.8125 38.2746582 48.375 38.2121582 C49.509375 38.2327832 50.64375 38.2534082 51.8125 38.2746582 C51.99425781 38.90114258 52.17601562 39.52762695 52.36328125 40.1730957 C52.61464844 40.99036133 52.86601563 41.80762695 53.125 42.6496582 C53.36863281 43.46176758 53.61226563 44.27387695 53.86328125 45.1105957 C54.72618185 47.6065045 54.72618185 47.6065045 57.8125 49.2746582 C62.07610945 49.74839259 64.04229497 49.86574578 67.5 47.2121582 C68.6446875 46.2530957 68.6446875 46.2530957 69.8125 45.2746582 C72.86441378 45.44905328 73.62508515 46.08724336 75.8125 48.2746582 C76.4375 50.8996582 76.4375 50.8996582 76.8125 53.2746582 C76.19375 53.5427832 75.575 53.8109082 74.9375 54.0871582 C72.5129767 55.23022669 72.5129767 55.23022669 70.8125 58.2746582 C70.31171839 62.11398389 70.53106053 63.81229336 72.5625 67.1496582 C74.78136633 69.73240723 74.78136633 69.73240723 78.8125 69.2746582 C78.85881905 60.98192103 78.89436694 52.68923782 78.91612434 44.39640331 C78.92656625 40.54579795 78.94073279 36.69528102 78.96337891 32.84472656 C78.98509291 29.12945498 78.99706556 25.41426851 79.00225449 21.69893837 C79.00595285 20.28074109 79.01317475 18.86254852 79.02396011 17.44438744 C79.03845502 15.45971588 79.03931675 13.47495885 79.03955078 11.49023438 C79.043992 10.35994308 79.04843323 9.22965179 79.05300903 8.06510925 C79.0198313 5.06435329 79.0198313 5.06435329 76.8125 2.2746582 C74.11300973 1.9670841 71.64103852 1.85484332 68.93798828 1.87060547 C68.12482147 1.86374222 67.31165466 1.85687897 66.47384644 1.84980774 C63.77665915 1.83145607 61.08004903 1.8353896 58.3828125 1.84106445 C56.51195078 1.83650605 54.64109074 1.8312015 52.77023315 1.82518005 C48.84431162 1.81623206 44.91859331 1.81869049 40.99267578 1.82861328 C35.95955931 1.84009421 30.92714531 1.8199136 25.89412117 1.79069614 C22.02850886 1.77235376 18.1630654 1.77262287 14.2974205 1.77833366 C12.44185273 1.77848718 10.58627373 1.77241804 8.73074722 1.76004219 C6.13531682 1.74517402 3.54119022 1.75577848 0.94580078 1.77294922 C-0.20610748 1.75844727 -0.20610748 1.75844727 -1.38128662 1.74365234 C-4.80675851 1.79113851 -6.83708782 2.02731109 -9.66744995 4.02519226 Z " fill="#090909" transform="translate(74.1875,45.725341796875)"/>
<path d="M0 0 C3.67114981 2.09216064 6.87988843 4.42235484 10.125 7.125 C11.08664063 7.92164063 12.04828125 8.71828125 13.0390625 9.5390625 C14.01617187 10.35117187 14.99328125 11.16328125 16 12 C17.83195304 13.50168545 19.6652621 15.00171833 21.5 16.5 C24.33415749 18.81774716 27.16692136 21.1371062 29.99609375 23.4609375 C30.96675781 24.25757812 31.93742187 25.05421875 32.9375 25.875 C33.81277344 26.59429687 34.68804687 27.31359375 35.58984375 28.0546875 C37.87638032 29.9941207 37.87638032 29.9941207 40.11949158 31.26200867 C42 33 42 33 42.49879456 35.59822083 C42.49862839 36.63935532 42.49846222 37.68048981 42.49829102 38.75317383 C42.51334435 40.52565239 42.51334435 40.52565239 42.52870178 42.3339386 C42.52051926 43.61205917 42.51233673 44.89017975 42.50390625 46.20703125 C42.51830144 48.21367211 42.53271254 50.220313 42.5480566 52.22694683 C42.56502295 55.04131704 42.56447907 57.85557011 42.56335449 60.66998291 C42.56139539 65.58215007 42.56835459 70.49412085 42.60325623 75.40617371 C42.62006935 78.02047005 42.62290131 80.63490204 42.61024475 83.2492218 C42.61712814 84.44033066 42.62401154 85.63143951 42.63110352 86.85864258 C42.63014175 87.90216385 42.62917999 88.94568512 42.62818909 90.02082825 C43.16116423 94.29134439 44.81419855 97.43421109 47.39575195 100.84301758 C49.54103427 102.39019349 51.03736541 102.42794157 53.66796875 102.51171875 C55.00698242 102.56489258 55.00698242 102.56489258 56.37304688 102.61914062 C57.30181641 102.64169922 58.23058594 102.66425781 59.1875 102.6875 C60.12787109 102.72166016 61.06824219 102.75582031 62.03710938 102.79101562 C64.35795393 102.87348218 66.67842148 102.94263403 69 103 C69.57230665 110.4562609 70.14166787 117.91274253 70.70898438 125.36938477 C70.90231643 127.90589489 71.09632209 130.44235378 71.29101562 132.97875977 C71.57078425 136.62502992 71.84812803 140.27147765 72.125 143.91796875 C72.25624268 145.61822456 72.25624268 145.61822456 72.39013672 147.35282898 C72.47021973 148.41355118 72.55030273 149.47427338 72.6328125 150.56713867 C72.73940186 151.96279305 72.73940186 151.96279305 72.84814453 153.38664246 C72.99600966 155.93132829 73.02706921 158.45169631 73 161 C69.98185656 158.15839495 67.70203469 155.25968339 65.44921875 151.78515625 C64.75231934 150.72184082 64.05541992 149.65852539 63.33740234 148.56298828 C62.77372955 147.70075653 62.77372955 147.70075653 62.19866943 146.82110596 C60.04361292 143.54698705 57.84225589 140.30415945 55.64453125 137.05859375 C54.6887474 135.64652138 53.73301919 134.23441136 52.77734375 132.82226562 C52.0500708 131.74779175 52.0500708 131.74779175 51.30810547 130.65161133 C49.77932173 128.38838251 48.25635094 126.12132712 46.734375 123.85351562 C40.47905726 114.53289412 40.47905726 114.53289412 33.85546875 105.47265625 C25.2565016 94.12048473 21.9369598 83.03113458 18.77832031 69.22070312 C17.57530822 64.24261794 16.04401523 59.38095708 14.5 54.5 C11.24484181 44.03836193 8.38586832 33.4876639 5.578125 22.8984375 C4.02503844 17.04922301 2.36328678 11.23960726 0.62890625 5.44140625 C0 3 0 3 0 0 Z " fill="#030303" transform="translate(16,41)"/>
<path d="M0 0 C0.79164551 0.19964355 1.58329102 0.39928711 2.39892578 0.60498047 C3.2289209 0.82428223 4.05891602 1.04358398 4.9140625 1.26953125 C5.79690918 1.49656738 6.67975586 1.72360352 7.58935547 1.95751953 C13.66099159 3.5373896 19.68336365 5.25773659 25.68994141 7.06738281 C32.18887491 9.01392328 38.73465553 10.77019708 45.2890625 12.51953125 C53.71538305 14.77669137 62.13875551 17.04212254 70.5390625 19.39453125 C71.42303711 19.63679443 72.30701172 19.87905762 73.21777344 20.12866211 C74.42868652 20.47102905 74.42868652 20.47102905 75.6640625 20.8203125 C76.36789063 21.01665283 77.07171875 21.21299316 77.796875 21.4152832 C79.5390625 22.08203125 79.5390625 22.08203125 81.5390625 24.08203125 C75.45334173 26.22260446 69.36594557 28.35835814 63.27734375 30.49072266 C61.20501151 31.21714401 59.13306959 31.94467984 57.06152344 32.67333984 C54.08890346 33.71873491 51.11491626 34.76015231 48.140625 35.80078125 C47.21037506 36.12888794 46.28012512 36.45699463 45.32168579 36.79504395 C44.46094452 37.09535522 43.60020325 37.3956665 42.71337891 37.70507812 C41.95392975 37.97155151 41.19448059 38.2380249 40.41201782 38.51257324 C38.5390625 39.08203125 38.5390625 39.08203125 36.5390625 39.08203125 C36.50039063 37.99535156 36.50039063 37.99535156 36.4609375 36.88671875 C36.10036144 30.74053591 35.62090368 26.78233322 31.5390625 22.08203125 C28.37547434 20.50023717 24.97124162 20.92582027 21.49682617 20.92089844 C20.66575851 20.91593353 19.83469086 20.91096863 18.97843933 20.90585327 C16.22129496 20.89121463 13.46420814 20.88442648 10.70703125 20.87890625 C8.79372658 20.87315576 6.88042194 20.86739801 4.96711731 20.8616333 C0.95130138 20.85111817 -3.0644945 20.845279 -7.08032227 20.84179688 C-12.22529153 20.83631411 -17.36999588 20.81229287 -22.51488209 20.78382492 C-26.4688545 20.76519678 -30.42276316 20.75999282 -34.37677574 20.758461 C-36.273388 20.75543384 -38.16999913 20.74740317 -40.06656837 20.73427582 C-42.72142265 20.71721326 -45.37563065 20.71909614 -48.03051758 20.72558594 C-48.81356262 20.71637115 -49.59660767 20.70715637 -50.40338135 20.69766235 C-54.93623292 20.73235743 -57.85482867 21.27665173 -61.4609375 24.08203125 C-63.3083573 26.83458159 -63.73452298 29.13235913 -63.875 32.41015625 C-63.91367187 33.209375 -63.95234375 34.00859375 -63.9921875 34.83203125 C-64.023125 35.65703125 -64.0540625 36.48203125 -64.0859375 37.33203125 C-64.12460938 38.1725 -64.16328125 39.01296875 -64.203125 39.87890625 C-64.29709586 41.94626507 -64.38009314 44.01411752 -64.4609375 46.08203125 C-69.85760203 42.11816334 -75.08019128 37.98289559 -80.24609375 33.72265625 C-82.67911213 31.71761836 -85.12764298 29.73272513 -87.58203125 27.75390625 C-88.29552734 27.17777588 -89.00902344 26.60164551 -89.74414062 26.00805664 C-91.15422105 24.87011662 -92.56562957 23.73381987 -93.97851562 22.59936523 C-97.31409118 19.90299857 -100.50561695 17.20363582 -103.4609375 14.08203125 C-95.18569 12.47263829 -86.90516526 10.95759947 -78.57421875 9.6640625 C-76.90144361 9.40213124 -75.22867358 9.14016743 -73.5559082 8.87817383 C-72.71049469 8.74617584 -71.86508118 8.61417786 -70.99404907 8.47817993 C-66.98227594 7.85078608 -62.97164613 7.2161879 -58.9609375 6.58203125 C-57.37761011 6.3319936 -55.79427677 6.08199368 -54.2109375 5.83203125 C-53.4271875 5.70828125 -52.6434375 5.58453125 -51.8359375 5.45703125 C-49.4609375 5.08203125 -47.0859375 4.70703125 -44.7109375 4.33203125 C-43.9262207 4.20803955 -43.14150391 4.08404785 -42.33300781 3.95629883 C-40.75955086 3.70803725 -39.18598395 3.46047149 -37.61230469 3.21362305 C-33.50165926 2.56787151 -29.3939723 1.9078913 -25.2890625 1.2265625 C-24.43892578 1.08734375 -23.58878906 0.948125 -22.71289062 0.8046875 C-21.09625944 0.53966599 -19.48031127 0.27042821 -17.86523438 -0.00390625 C-11.82672799 -0.98655033 -6.00287271 -1.53875079 0 0 Z " fill="#020202" transform="translate(122.4609375,22.91796875)"/>
<path d="M0 0 C10.91765747 -0.0694059 21.83526276 -0.12276327 32.75309563 -0.15543652 C37.82229256 -0.17111533 42.89133895 -0.19239389 47.96044922 -0.22631836 C52.84930025 -0.25883298 57.73800616 -0.2768363 62.62695694 -0.28463173 C64.49535534 -0.29018948 66.36374549 -0.30104192 68.23208237 -0.31719017 C70.84223559 -0.33885972 73.45178352 -0.34197136 76.06201172 -0.34057617 C77.22941895 -0.35675491 77.22941895 -0.35675491 78.42041016 -0.3732605 C80.57052612 -0.36076355 80.57052612 -0.36076355 84 0 C86.3639196 3.54587941 86.24355585 5.01503682 86.22705078 9.21557617 C86.22689972 10.4966777 86.22674866 11.77777924 86.22659302 13.09770203 C86.21637973 14.49612584 86.20594774 15.89454808 86.1953125 17.29296875 C86.19158178 18.72357485 86.18873509 20.15418352 86.18673706 21.58479309 C86.17910522 25.34792144 86.15946069 29.11089511 86.1373291 32.8739624 C86.11686094 36.71478178 86.10773327 40.55562617 86.09765625 44.39648438 C86.07621429 51.93106006 86.04208387 59.46550834 86 67 C81.2265625 66.2109375 81.2265625 66.2109375 79.1875 64.3125 C77.6136124 61.24756099 77.51298505 59.40910465 78 56 C79.875 53.125 79.875 53.125 82 51 C82.66 51 83.32 51 84 51 C82.73025028 46.58477891 82.73025028 46.58477891 80 43 C77.40937842 43.25906216 76.16738825 43.85569978 74.1875 45.5625 C70.99124306 47.66289742 68.73949553 47.46743694 65 47 C60.85958334 44.20242118 60.0918506 40.73135259 59 36 C56.69 36 54.38 36 52 36 C51.33086571 38.84382074 51.00555784 41.06669413 51.25 44 C51 47 51 47 48.6875 49.875 C46 52 46 52 43 52 C42.8822549 43.98025051 43.02746968 36.00842892 43.4375 28 C43.47673584 27.19973389 43.51597168 26.39946777 43.55639648 25.57495117 C43.78932846 21.317348 44.19948676 17.19764926 45 13 C53.31818186 13.37724181 58.69101585 15.24047215 64.375 21.4375 C66.59591425 24.19143366 67.89290078 26.35862658 68 30 C67.505 30.495 67.505 30.495 67 31 C66.83333333 33.5 66.83333333 33.5 67 36 C68.0595877 37.28322547 68.0595877 37.28322547 70.5 37.125 C72.9404123 37.28322547 72.9404123 37.28322547 74 36 C74.04063832 34.33382885 74.042721 32.66611905 74 31 C73.39800781 30.76925781 72.79601562 30.53851563 72.17578125 30.30078125 C69.4176543 28.65184719 68.66145124 27.02071464 67.1875 24.1875 C63.67846262 18.14464159 60.60938394 15.1140633 53.88671875 13.0390625 C50.93495601 12.28291176 47.98638833 11.60316217 45 11 C45 8.03 45 5.06 45 2 C30.15 2 15.3 2 0 2 C0 1.34 0 0.68 0 0 Z " fill="#DEDEDE" transform="translate(67,48)"/>
<path d="M0 0 C1.15941038 3.47823115 0.70820884 5.45895578 0 9 C0.55429688 9.32613281 1.10859375 9.65226562 1.6796875 9.98828125 C2.40414062 10.42527344 3.12859375 10.86226562 3.875 11.3125 C4.59429687 11.74175781 5.31359375 12.17101562 6.0546875 12.61328125 C8 14 8 14 10 17 C10.4375 19.875 10.4375 19.875 10 23 C8.3540349 24.68711423 6.68762851 26.3545622 5 28 C4.41511438 30.62875402 4.41511438 30.62875402 5 33 C6.82203581 35.22966747 6.82203581 35.22966747 9.4375 35.3125 C12.04642916 35.28358088 12.04642916 35.28358088 13.3125 33.5 C15.68053986 31.39507568 17.91366717 31.46452646 20.9921875 31.578125 C24.44990146 32.30464856 25.98596646 34.23070388 28 37 C28 38.32 28 39.64 28 41 C20.2288784 41.09265029 12.45788597 41.16373925 4.68635082 41.20724869 C1.07773021 41.22813051 -2.53051277 41.25645764 -6.13891602 41.30175781 C-9.62079774 41.34519643 -13.1023161 41.36913263 -16.58444786 41.37950897 C-18.56047435 41.39050504 -20.53635448 41.42173453 -22.51216125 41.45318604 C-23.71317978 41.45348816 -24.9141983 41.45379028 -26.15161133 41.45410156 C-27.74045891 41.46742523 -27.74045891 41.46742523 -29.36140442 41.48101807 C-32 41 -32 41 -33.80302429 39.15911865 C-36.00663402 35.18422189 -36.1179016 32.05625298 -36.09765625 27.58203125 C-36.09443359 26.32841797 -36.09121094 25.07480469 -36.08789062 23.78320312 C-36.07951172 22.47287109 -36.07113281 21.16253906 -36.0625 19.8125 C-36.05748317 18.47721519 -36.05292059 17.14192859 -36.04882812 15.80664062 C-36.03702695 12.53771527 -36.02056297 9.26888009 -36 6 C-29.25 5.8203125 -29.25 5.8203125 -27 7.4375 C-25.46968232 11.35893905 -26.27794028 14.9286271 -27 19 C-25.02 19 -23.04 19 -21 19 C-20.649375 18.030625 -20.29875 17.06125 -19.9375 16.0625 C-18 13 -18 13 -14.5625 11.875 C-11 12 -11 12 -8.8125 14 C-7.9153125 14.99 -7.9153125 14.99 -7 16 C-4.78141747 15.86358623 -4.78141747 15.86358623 -3 15 C-2.29805007 13.19747131 -2.29805007 13.19747131 -2 11 C-2.350625 10.360625 -2.70125 9.72125 -3.0625 9.0625 C-4 7 -4 7 -3.25 4.375 C-2 2 -2 2 0 0 Z " fill="#E1E1E1" transform="translate(99,98)"/>
<path d="M0 0 C3.76456766 2.06682146 7.05213977 4.10427955 9 8 C9.55335968 12.9011857 9.5327637 15.00795724 7.1875 19.375 C4.89735405 22.12317514 3.31161645 23.80881523 -0.3046875 24.3359375 C-4.57276853 24.40080195 -7.24596584 24.43985326 -11 22.25 C-13.97870059 18.89896183 -14.87462312 17.12839194 -15.375 12.625 C-14.92515417 8.27649031 -13.79790424 6.32723747 -11 3 C-7.33394266 0.1057442 -4.63689657 -0.6624138 0 0 Z " fill="#D9D9D9" transform="translate(130,100)"/>
<path d="M0 0 C2.75025718 1.7569363 3.35449951 2.98324911 5 6 C5.06761916 9.92191148 4.54909835 12.10771518 2.5 15.4375 C-1.25538525 17.78461578 -4.6971591 17.89214866 -9 17 C-11.72246943 14.87514581 -12.73121981 13.42877889 -13.37109375 10.02734375 C-13.57582272 6.7082529 -13.2198665 4.38237652 -11.5625 1.5 C-7.72932387 -0.74381042 -4.31920672 -1.00500192 0 0 Z " fill="#E1E1E1" transform="translate(86,88)"/>
<path d="M0 0 C0.66 0 1.32 0 2 0 C2.33 1.32 2.66 2.64 3 4 C4.00289062 3.67773438 5.00578125 3.35546875 6.0390625 3.0234375 C14.48167861 0.62520819 24.31355208 0.59690018 32.140625 4.8046875 C37.71625567 8.3890215 41.06907493 12.02542198 44 18 C44 18.66 44 19.32 44 20 C44.9590625 20.2165625 44.9590625 20.2165625 45.9375 20.4375 C48 21 48 21 49 22 C49.1875 24.4375 49.1875 24.4375 49 27 C47 29 47 29 44.5 29.25 C42 29 42 29 40 27 C39.79947203 24.45997906 39.82523543 22.50078737 40.66796875 20.0859375 C41.21168353 17.95104987 41.21168353 17.95104987 40.03125 16 C35.71248316 10.35916168 31.8357485 7.27858283 25 5 C22.50894976 4.90364538 20.05259297 4.8606754 17.5625 4.875 C16.24378906 4.87242188 14.92507812 4.86984375 13.56640625 4.8671875 C10.79761546 4.9702969 8.60922886 5.15917433 6 6 C6 7.65 6 9.3 6 11 C2.04 10.67 -1.92 10.34 -6 10 C-1.5078125 2.1875 -1.5078125 2.1875 0 0 Z " fill="#141414" transform="translate(93,57)"/>
<path d="M0 0 C1.299375 0.05607422 1.299375 0.05607422 2.625 0.11328125 C3.924375 0.15001953 3.924375 0.15001953 5.25 0.1875 C7.625 0.42578125 7.625 0.42578125 10.625 1.42578125 C10.70667446 2.84147189 10.76449698 4.2585493 10.8125 5.67578125 C10.86470703 6.85914063 10.86470703 6.85914063 10.91796875 8.06640625 C10.53861986 11.1214293 9.91843884 12.35792656 7.625 14.42578125 C4.48828125 14.81640625 4.48828125 14.81640625 0.9375 14.67578125 C-0.83173828 14.62164062 -0.83173828 14.62164062 -2.63671875 14.56640625 C-3.54035156 14.52 -4.44398438 14.47359375 -5.375 14.42578125 C-5.45653933 12.84331418 -5.51443557 11.25961852 -5.5625 9.67578125 C-5.59730469 8.7940625 -5.63210937 7.91234375 -5.66796875 7.00390625 C-5.22004767 3.06220072 -4.06458464 0.72868376 0 0 Z " fill="#E1E1E1" transform="translate(142.375,124.57421875)"/>
<path d="M0 0 C11.12658213 -0.09268518 22.2530724 -0.1637576 33.37996197 -0.20724869 C38.54665959 -0.22812241 43.71309307 -0.25643634 48.87963867 -0.30175781 C53.86577259 -0.34522292 58.85165245 -0.36913873 63.8379612 -0.37950897 C65.7401816 -0.38689913 67.64238812 -0.4013304 69.54450035 -0.42292023 C72.20925301 -0.45196313 74.8729563 -0.45595565 77.5378418 -0.45410156 C78.7171225 -0.47567322 78.7171225 -0.47567322 79.92022705 -0.49768066 C83.65586192 -0.46956124 85.7921778 -0.13173406 88.97810364 1.88775635 C91.01622033 4.01694513 91.69026081 5.1091009 92 8 C91.34 8 90.68 8 90 8 C89.67 8.66 89.34 9.32 89 10 C88.690625 9.195625 88.38125 8.39125 88.0625 7.5625 C87.23664655 5.10919595 87.23664655 5.10919595 86 4 C83.35348657 3.87490166 80.73177781 3.81394005 78.08374023 3.79467773 C77.25454071 3.78477814 76.42534119 3.77487854 75.5710144 3.76467896 C72.81690371 3.7329688 70.06277574 3.70826912 67.30859375 3.68359375 C65.40429727 3.66303243 63.50000545 3.64203618 61.59571838 3.62062073 C56.57337194 3.56531515 51.55098373 3.51594344 46.52856445 3.46777344 C41.40767685 3.41762021 36.2868502 3.36190197 31.16601562 3.30664062 C21.1107291 3.19895533 11.05538975 3.09753355 1 3 C0.67 2.01 0.34 1.02 0 0 Z " fill="#D5D5D5" transform="translate(66,43)"/>
<path d="M0 0 C2.4375 1 2.4375 1 4 3 C4.5659239 7.45665069 4.82483134 9.73102871 2.375 13.5 C-0.76313998 15.48198314 -2.34873465 15.67064058 -6 15 C-8.9375 12.9375 -8.9375 12.9375 -11 10 C-11 6.45638757 -10.65850044 4.13408409 -8.875 1.0625 C-5.85228899 -0.65036957 -3.39414695 -0.35727863 0 0 Z " fill="#040404" transform="translate(130,105)"/>
<path d="M0 0 C1.32 0.33 2.64 0.66 4 1 C3.34 13.21 2.68 25.42 2 38 C0.02 38.495 0.02 38.495 -2 39 C-2.1177451 30.98025051 -1.97253032 23.00842892 -1.5625 15 C-1.50364624 13.79960083 -1.50364624 13.79960083 -1.44360352 12.57495117 C-1.21067154 8.317348 -0.80051324 4.19764926 0 0 Z " fill="#FDFDFD" transform="translate(112,61)"/>
<path d="M0 0 C3.76456766 2.06682146 7.05213977 4.10427955 9 8 C9.37359407 11.4730412 9.59598805 14.80802391 8 18 C6.35 17.67 4.7 17.34 3 17 C3.03480469 16.37351562 3.06960937 15.74703125 3.10546875 15.1015625 C3.13253906 14.28429687 3.15960938 13.46703125 3.1875 12.625 C3.22230469 11.81289062 3.25710937 11.00078125 3.29296875 10.1640625 C3.19628906 9.44992188 3.09960938 8.73578125 3 8 C-0.66865241 5.55423173 -2.67200343 5.76392746 -7 6 C-7.99 6.495 -7.99 6.495 -9 7 C-9.99 6.01 -10.98 5.02 -12 4 C-7.86706705 0.8510987 -5.2434787 -0.87391312 0 0 Z " fill="#D8D8D8" transform="translate(130,100)"/>
<path d="M0 0 C0.33 0.99 0.66 1.98 1 3 C-3.12237348 4.8392812 -7.24831578 6.67041342 -11.375 8.5 C-13.1384375 9.28697266 -13.1384375 9.28697266 -14.9375 10.08984375 C-16.05898437 10.58613281 -17.18046875 11.08242187 -18.3359375 11.59375 C-19.89127197 12.28500977 -19.89127197 12.28500977 -21.47802734 12.99023438 C-24 14 -24 14 -26 14 C-26 12.68 -26 11.36 -26 10 C-22.50583425 7.9908547 -19.80031754 6.87915112 -15.8125 6.6875 C-13.9253125 6.3471875 -13.9253125 6.3471875 -12 6 C-10.04901119 3.09925069 -10.04901119 3.09925069 -9 0 C-5.93109813 -1.53445094 -3.29905734 -0.54984289 0 0 Z " fill="#EAEAEA" transform="translate(90,111)"/>
<path d="M0 0 C0.33 0 0.66 0 1 0 C1 6.6 1 13.2 1 20 C-3 19 -3 19 -4.75 17.3125 C-6.40602592 14.24885205 -6.4918074 12.44265183 -6 9 C-4.125 6.125 -4.125 6.125 -2 4 C-1.34 4 -0.68 4 0 4 C0 2.68 0 1.36 0 0 Z " fill="#D8D8D8" transform="translate(151,95)"/>
<path d="M0 0 C16.17 0 32.34 0 49 0 C49 3.3 49 6.6 49 10 C47.68 10 46.36 10 45 10 C45 7.03 45 4.06 45 1 C30.15 1 15.3 1 0 1 C0 0.67 0 0.34 0 0 Z " fill="#ECECEC" transform="translate(67,49)"/>
<path d="M0 0 C5.875 1.875 5.875 1.875 7 3 C7.1875 5.4375 7.1875 5.4375 7 8 C5 10 5 10 2.5 10.25 C0 10 0 10 -2 8 C-2.38286803 4.26703674 -2.14915785 3.22373677 0 0 Z " fill="#000000" transform="translate(135,76)"/>
<path d="M0 0 C6.625 -0.125 6.625 -0.125 10 1 C10 3.97 10 6.94 10 10 C9.01 10.495 9.01 10.495 8 11 C6.88625 9.8553125 6.88625 9.8553125 5.75 8.6875 C3.5736677 6.5606298 1.47832204 4.7440044 -1 3 C-0.67 2.01 -0.34 1.02 0 0 Z " fill="#EEEEEE" transform="translate(143,125)"/>
<path d="M0 0 C2.625 0.375 2.625 0.375 5 1 C5.625 3.375 5.625 3.375 6 6 C5.34 6.66 4.68 7.32 4 8 C1.375 7.625 1.375 7.625 -1 7 C-1.625 4.625 -1.625 4.625 -2 2 C-1.34 1.34 -0.68 0.68 0 0 Z " fill="#0B0B0B" transform="translate(75,68)"/>
<path d="M0 0 C-2.52267991 1.68178661 -4.81091823 2.90106742 -7.5625 4.125 C-8.34753906 4.47820312 -9.13257812 4.83140625 -9.94140625 5.1953125 C-12 6 -12 6 -14 6 C-14 4.68 -14 3.36 -14 2 C-8.76579213 -1.27137992 -5.83394389 -1.10643764 0 0 Z " fill="#FEFEFE" transform="translate(78,119)"/>
<path d="M0 0 C1.32 0.33 2.64 0.66 4 1 C3.34 4.3 2.68 7.6 2 11 C1.01 11.33 0.02 11.66 -1 12 C-2 11 -2 11 -2.1875 7.6875 C-2.01798052 4.35361682 -1.75557129 2.74308013 0 0 Z " fill="#DBDBDB" transform="translate(117,105)"/>
<path d="M0 0 C0 0.66 0 1.32 0 2 C-0.99 2.33 -1.98 2.66 -3 3 C-2.34 3.66 -1.68 4.32 -1 5 C-6.37305699 6.67357513 -6.37305699 6.67357513 -9 7 C-11 5.625 -11 5.625 -12 4 C-7.81413519 0.81076967 -5.29441695 -0.50423019 0 0 Z " fill="#CFCFCF" transform="translate(130,100)"/>
<path d="M0 0 C2.0625 1.625 2.0625 1.625 4 4 C3.75 7.25 3.75 7.25 3 10 C1.68 10.33 0.36 10.66 -1 11 C-1.02688151 9.35425434 -1.04634123 7.70838587 -1.0625 6.0625 C-1.07410156 5.14597656 -1.08570313 4.22945313 -1.09765625 3.28515625 C-1 1 -1 1 0 0 Z " fill="#DBDBDB" transform="translate(65,84)"/>
<path d="M0 0 C1.32 0 2.64 0 4 0 C4 3.3 4 6.6 4 10 C2.68 10 1.36 10 0 10 C0 6.7 0 3.4 0 0 Z " fill="#FEFEFE" transform="translate(112,49)"/>
<path d="M0 0 C1.19923631 1.79885447 2.35982835 3.62578844 3.4375 5.5 C4.86336662 7.98985009 4.86336662 7.98985009 6.6875 9.6875 C7.120625 10.120625 7.55375 10.55375 8 11 C8 11.66 8 12.32 8 13 C4.65284942 12.75206292 3.68272175 11.696823 1.1875 9.3125 C-1 6 -1 6 -0.8125 2.625 C-0.544375 1.75875 -0.27625 0.8925 0 0 Z " fill="#E4E4E4" transform="translate(60,131)"/>
<path d="M0 0 C0.99 0 1.98 0 3 0 C3.25 2.75 3.25 2.75 3 6 C1 8.375 1 8.375 -1 10 C-1.02689216 8.52093108 -1.04634621 7.04172517 -1.0625 5.5625 C-1.07410156 4.73878906 -1.08570312 3.91507812 -1.09765625 3.06640625 C-1 1 -1 1 0 0 Z " fill="#CCCCCC" transform="translate(115,89)"/>
<path d="M0 0 C0.33 1.32 0.66 2.64 1 4 C-1.07553648 4.5534764 -2.84365964 5 -5 5 C-5.66 6.65 -6.32 8.3 -7 10 C-7.66 10 -8.32 10 -9 10 C-9 7.25 -9 7.25 -8 4 C-5.49568941 2.25280657 -2.84048268 1.09995912 0 0 Z " fill="#C4C4C4" transform="translate(103,95)"/>
<path d="M0 0 C0.66 0 1.32 0 2 0 C1.8125 3.3125 1.8125 3.3125 1 7 C-1.5625 8.9375 -1.5625 8.9375 -4 10 C-2.66666667 6.66666667 -1.33333333 3.33333333 0 0 Z " fill="#E5E5E5" transform="translate(155,134)"/>
<path d="M0 0 C2.82995081 0.28299508 3.82003426 0.80075222 5.75 2.9375 C7 5 7 5 7 7 C6.34 7 5.68 7 5 7 C4.67 7.66 4.34 8.32 4 9 C3.731875 8.236875 3.46375 7.47375 3.1875 6.6875 C2.05575888 4.12619116 1.08776599 2.80307062 -1 1 C-0.67 0.67 -0.34 0.34 0 0 Z " fill="#E5E5E5" transform="translate(151,44)"/>
<path d="M0 0 C0.66 0.33 1.32 0.66 2 1 C0.68 3.97 -0.64 6.94 -2 10 C-2.99 9.67 -3.98 9.34 -5 9 C-3.90931332 5.22454612 -3.0916909 2.52956528 0 0 Z " fill="#DDDDDD" transform="translate(63,44)"/>
<path d="M0 0 C1.32 0.33 2.64 0.66 4 1 C3.34 2.32 2.68 3.64 2 5 C0.68 4.34 -0.64 3.68 -2 3 C-1.34 2.01 -0.68 1.02 0 0 Z " fill="#F1F1F1" transform="translate(133,117)"/>
<path d="M0 0 C1.98 0.495 1.98 0.495 4 1 C3.34 2.65 2.68 4.3 2 6 C1.67 5.34 1.34 4.68 1 4 C0.34 4 -0.32 4 -1 4 C-0.67 2.68 -0.34 1.36 0 0 Z " fill="#F1F1F1" transform="translate(117,105)"/>
<path d="M0 0 C1.9375 0.6875 1.9375 0.6875 4 2 C4.75 4.625 4.75 4.625 5 7 C4.01 7 3.02 7 2 7 C1.34 4.69 0.68 2.38 0 0 Z " fill="#0B0B0B" transform="translate(151,47)"/>
</svg>
