<?xml version="1.0" standalone="no"?>
<!DOCTYPE svg PUBLIC "-//W3C//DTD SVG 20010904//EN"
 "http://www.w3.org/TR/2001/REC-SVG-20010904/DTD/svg10.dtd">
<svg version="1.0" xmlns="http://www.w3.org/2000/svg"
 width="1000.000000pt" height="974.000000pt" viewBox="0 0 1000.000000 974.000000"
 preserveAspectRatio="xMidYMid meet">

<g transform="translate(0.000000,974.000000) scale(0.100000,-0.100000)"
fill="#000000" stroke="none">
<path d="M4217 9646 c-52 -19 -56 -23 -197 -166 -144 -148 -127 -139 -440
-226 -254 -71 -302 -75 -441 -36 -58 17 -139 36 -180 43 -154 26 -194 -4 -309
-231 -93 -184 -87 -179 -350 -345 -217 -137 -278 -165 -360 -165 -113 0 -288
-19 -330 -36 -82 -33 -106 -87 -141 -317 -14 -99 -28 -155 -44 -184 -31 -56
-299 -395 -367 -464 -44 -45 -69 -60 -143 -88 -114 -43 -233 -102 -273 -136
-17 -14 -38 -46 -48 -71 -20 -52 -16 -147 15 -331 13 -80 16 -126 10 -163 -11
-67 -180 -572 -215 -642 -17 -33 -74 -102 -154 -185 -145 -150 -180 -206 -180
-290 0 -66 15 -110 102 -303 l70 -155 11 -146 c7 -100 7 -193 0 -295 l-10
-149 -60 -135 c-121 -271 -135 -341 -88 -436 15 -30 78 -106 160 -192 97 -101
142 -156 158 -194 35 -80 185 -534 201 -608 12 -58 11 -77 -5 -175 -10 -61
-21 -155 -25 -210 -6 -93 -4 -103 18 -145 32 -60 86 -95 256 -164 77 -32 156
-71 176 -88 42 -34 355 -422 392 -485 18 -30 30 -77 44 -170 35 -227 53 -279
113 -320 45 -31 100 -40 280 -48 189 -9 188 -9 450 -175 246 -156 257 -167
345 -342 40 -81 87 -160 107 -181 34 -35 86 -57 135 -57 29 1 143 26 281 63
90 24 99 25 170 12 84 -14 404 -102 495 -136 51 -19 75 -38 184 -149 150 -153
175 -170 253 -170 66 0 107 18 281 124 71 43 124 68 154 73 60 9 512 9 574 -1
29 -4 78 -26 130 -58 168 -103 244 -138 299 -138 28 0 67 8 87 17 21 9 95 77
166 150 111 113 138 136 185 154 85 32 427 125 506 138 66 11 76 10 170 -17
344 -99 386 -84 515 182 41 84 82 154 102 173 43 42 374 254 463 298 68 33 76
35 243 44 198 12 243 22 288 68 41 41 57 94 85 276 15 102 28 155 46 188 29
55 296 393 367 465 40 40 68 58 126 79 102 38 249 108 284 136 70 55 80 141
42 378 -16 105 -20 158 -14 195 8 55 172 550 209 631 14 32 59 88 128 160 185
191 211 233 211 328 0 66 -9 92 -101 299 l-72 162 -10 144 c-7 99 -7 193 0
296 l11 151 60 130 c120 262 135 340 87 435 -15 30 -77 103 -154 182 -83 86
-138 152 -156 187 -37 73 -203 573 -212 641 -6 39 -3 86 9 160 9 58 20 150 23
205 6 92 5 104 -17 144 -34 66 -76 93 -248 165 -184 77 -187 79 -386 327 -206
257 -217 276 -229 384 -11 102 -45 256 -66 297 -39 77 -93 95 -325 106 -202 9
-185 3 -467 182 -239 151 -245 157 -324 314 -84 168 -114 211 -166 237 -56 29
-141 22 -312 -27 -164 -46 -192 -44 -455 30 -327 92 -313 84 -451 229 -124
131 -191 177 -253 177 -45 -1 -126 -37 -259 -118 -65 -40 -137 -77 -160 -82
-55 -12 -529 -13 -595 0 -32 6 -81 28 -130 59 -117 73 -232 129 -277 136 -23
3 -56 -1 -78 -9z m128 -188 c33 -17 100 -55 149 -85 136 -83 161 -87 501 -87
355 0 356 0 554 118 79 47 152 86 161 86 17 0 98 -73 188 -172 102 -111 139
-129 442 -212 372 -102 349 -101 618 -31 119 31 145 35 158 24 9 -7 49 -80 90
-161 49 -98 88 -162 115 -189 40 -40 240 -175 423 -287 143 -86 185 -98 366
-106 183 -8 207 -12 219 -35 6 -9 19 -80 31 -157 38 -240 39 -243 265 -525
225 -281 246 -300 400 -361 155 -62 222 -95 229 -114 7 -19 5 -44 -26 -247
-18 -120 -19 -148 -9 -210 16 -98 192 -621 238 -710 28 -53 69 -103 165 -202
70 -71 133 -142 139 -158 14 -33 -3 -85 -93 -280 -70 -153 -76 -177 -84 -329
l-7 -118 -796 0 -797 0 -37 75 c-20 42 -56 96 -79 121 -46 50 -131 104 -162
104 -14 0 -17 3 -9 11 7 7 9 80 5 230 l-5 219 27 0 c24 0 90 15 229 51 62 16
48 40 -110 189 l-143 134 0 93 0 93 28 1 c15 0 81 15 147 32 86 23 121 37 123
48 2 10 -54 71 -148 159 l-150 143 0 84 c0 80 1 83 23 83 24 0 251 55 267 65
23 14 3 40 -140 175 l-150 142 0 87 0 87 73 16 c40 9 105 26 145 38 60 18 72
25 72 43 0 15 -46 63 -150 157 l-150 135 3 85 2 84 80 17 c186 39 234 53 240
67 8 22 -7 35 -113 98 -309 183 -530 344 -698 506 l-111 108 -9 113 c-8 105
-10 112 -31 115 -23 3 -23 2 -23 -111 l0 -115 -92 -87 c-170 -160 -303 -260
-612 -461 -243 -158 -246 -163 -121 -201 44 -13 108 -29 143 -35 l62 -11 0
-91 -1 -91 -145 -135 c-105 -97 -144 -140 -142 -154 2 -16 23 -25 113 -48 61
-15 121 -28 136 -28 41 0 49 -17 49 -106 l0 -82 -150 -138 c-82 -76 -150 -144
-150 -150 0 -6 6 -16 13 -22 15 -13 237 -72 268 -72 17 0 19 -8 19 -83 l0 -84
-150 -138 c-82 -76 -150 -144 -150 -150 0 -7 6 -17 13 -22 15 -12 185 -60 245
-69 l42 -7 0 -71 c0 -39 -3 -80 -6 -92 -3 -12 -71 -81 -150 -154 -110 -101
-144 -138 -142 -154 2 -17 20 -26 98 -48 52 -15 116 -31 143 -34 l47 -7 0
-222 0 -222 -43 -17 c-87 -33 -155 -111 -207 -238 -23 -56 -25 -58 -61 -58
l-37 0 19 63 c23 74 26 105 39 309 11 174 8 191 -47 274 -19 28 -36 67 -39 86
-4 20 2 118 12 219 24 249 24 233 -8 237 -34 4 -34 3 -53 -187 -23 -236 -21
-295 15 -356 69 -118 65 -96 53 -303 -8 -127 -17 -206 -30 -247 -18 -58 -20
-60 -56 -63 -20 -2 -37 -1 -37 2 0 3 14 42 30 88 28 77 30 90 30 230 0 112 -4
156 -15 178 -8 16 -48 56 -89 89 -41 33 -96 89 -124 123 -88 111 -66 104 -254
78 -310 -42 -481 -70 -495 -81 -10 -9 -13 -71 -13 -302 0 -238 -3 -301 -16
-349 -16 -56 -18 -58 -50 -58 -40 0 -41 6 -14 78 18 47 20 76 20 315 0 247 -7
328 -30 342 -5 3 -35 13 -66 21 -77 20 -184 84 -233 141 -90 101 -124 220
-141 479 -5 87 -15 163 -20 168 -7 7 -81 13 -178 16 -178 5 -207 13 -232 60
-17 32 25 64 185 141 175 84 230 99 360 99 78 0 110 5 144 20 48 22 77 25 86
10 12 -20 -5 -45 -50 -74 -57 -35 -69 -57 -61 -110 8 -46 63 -167 96 -209 12
-15 47 -40 79 -56 108 -54 168 -61 581 -70 l355 -8 94 -41 c166 -73 210 -107
234 -177 10 -28 21 -41 35 -43 31 -5 37 21 18 72 -32 84 -100 135 -277 207
l-104 43 -365 7 c-539 11 -588 28 -665 232 -14 38 -25 70 -25 72 0 3 13 11 29
19 92 48 119 130 62 187 -35 34 -52 36 -124 9 -49 -18 -87 -19 -87 -1 0 11 94
70 136 85 23 8 77 20 120 26 93 14 394 111 434 140 44 31 71 83 81 157 8 54 7
70 -5 81 -25 26 -43 7 -50 -53 -8 -67 -26 -105 -62 -134 -15 -12 -28 -20 -30
-19 -1 2 2 24 8 50 13 56 0 114 -41 173 -56 83 -92 45 -43 -45 35 -63 37 -82
18 -155 l-13 -50 -114 -37 c-157 -51 -156 -52 -114 25 40 72 65 161 65 229 0
44 -2 48 -25 48 -20 0 -25 -6 -30 -37 -12 -88 -37 -170 -68 -222 -17 -31 -34
-65 -37 -75 -4 -14 -21 -23 -63 -32 -69 -16 -144 -53 -193 -96 l-37 -32 -123
64 c-94 50 -120 67 -112 77 6 7 8 22 5 33 -3 11 -2 22 3 25 4 2 49 74 100 160
77 129 90 158 80 170 -7 8 -18 15 -26 15 -7 0 -50 -63 -96 -140 -46 -77 -86
-140 -89 -140 -6 0 -20 47 -34 113 -4 21 -11 27 -30 27 -22 0 -25 -4 -25 -37
0 -21 13 -76 29 -123 16 -47 28 -86 27 -87 -8 -9 -154 50 -168 67 -26 33 -37
83 -31 148 5 48 3 60 -10 65 -9 3 -24 -1 -33 -10 -25 -25 -17 -181 12 -220 28
-38 78 -71 127 -84 23 -6 113 -47 201 -92 l161 -81 -73 -8 c-82 -8 -158 -38
-337 -131 -166 -86 -202 -144 -135 -221 52 -58 87 -69 252 -74 l146 -5 7 -96
c19 -302 55 -422 161 -540 l47 -53 -2 -331 c-2 -290 -5 -336 -21 -376 -9 -25
-21 -64 -24 -86 l-7 -40 -574 0 -575 0 0 196 0 196 538 7 c537 8 583 6 595
-26 3 -7 6 8 6 34 1 40 -2 48 -21 54 -12 3 -275 5 -584 3 l-561 -4 -94 90
c-172 163 -288 255 -325 255 -42 0 -220 -139 -374 -291 l-54 -54 -566 3 c-642
4 -611 8 -660 -79 -24 -42 -25 -51 -25 -219 l0 -175 -433 -3 -432 -2 0 73 c0
163 -16 230 -94 407 -41 91 -80 184 -86 208 -12 39 -11 44 12 79 14 21 77 92
141 157 81 84 127 140 151 186 41 78 208 566 232 680 19 86 19 90 -21 350 -9
57 -14 114 -11 125 6 23 117 81 250 130 127 48 163 81 379 352 152 191 212
279 228 332 5 20 21 105 34 190 13 88 29 159 37 167 10 10 62 17 178 24 91 5
180 13 199 16 46 7 154 62 271 137 375 239 367 232 471 439 43 86 82 159 87
162 9 5 164 -28 292 -64 57 -16 90 -20 140 -15 70 6 351 76 508 126 156 50
184 69 321 210 68 71 128 129 135 129 6 0 38 -14 71 -32z m3018 -1102 c102
-80 298 -212 431 -291 111 -66 112 -63 -22 -90 -66 -14 -170 -15 -752 -13
-623 3 -679 5 -732 22 l-57 19 212 141 c243 161 390 273 521 397 l90 86 113
-103 c62 -56 150 -132 196 -168z m267 -541 l0 -75 -575 0 -575 0 0 75 0 75
575 0 575 0 0 -75z m143 -252 c65 -58 114 -110 110 -113 -5 -4 -39 -16 -78
-26 -65 -18 -115 -19 -740 -19 -622 0 -675 1 -745 19 -41 10 -79 22 -83 26 -5
4 43 55 105 114 l113 106 600 0 600 0 118 -107z m-147 -236 c1 -1 5 -35 9 -74
l7 -73 -581 0 -581 0 0 78 0 77 572 -3 c315 -2 574 -5 574 -5z m153 -329 l119
-113 -91 -23 c-92 -22 -95 -22 -772 -19 -633 2 -684 4 -740 22 -33 10 -62 20
-65 23 -3 2 47 53 110 113 l115 108 603 1 602 0 119 -112z m-145 -280 c3 -29
6 -61 6 -70 0 -17 -34 -18 -580 -18 l-580 0 0 70 0 70 574 0 573 0 7 -52z
m139 -264 c62 -58 113 -109 115 -113 1 -4 -37 -17 -86 -29 -86 -21 -105 -22
-737 -22 -616 0 -654 1 -734 20 -46 11 -88 23 -94 27 -6 4 38 52 104 114 l114
108 603 1 604 0 111 -106z m-143 -309 l0 -75 -575 0 -575 0 0 75 0 75 575 0
575 0 0 -75z m142 -257 l120 -113 -58 -19 c-92 -28 -391 -38 -949 -31 -449 5
-498 8 -580 27 l-90 21 120 113 120 114 599 0 598 0 120 -112z m-3032 -526 c0
-262 -3 -304 -19 -357 -18 -58 -20 -60 -55 -63 -42 -4 -43 1 -13 65 21 46 22
56 19 293 -2 135 0 278 3 317 l7 73 29 -15 29 -16 0 -297z m947 275 c49 -65
86 -155 91 -218 5 -63 -23 -143 -124 -356 -53 -113 -53 -113 -88 -113 -20 0
-36 3 -36 6 0 3 19 42 43 87 66 125 141 321 134 349 -4 13 -42 80 -86 148
l-80 125 37 6 c70 12 76 10 109 -34z m-129 -118 l90 -141 -47 -116 c-26 -65
-68 -156 -94 -205 -25 -48 -49 -103 -53 -122 l-6 -35 -204 0 c-233 0 -227 -3
-197 82 16 48 18 82 15 335 l-4 282 37 7 c49 9 335 52 357 53 11 1 47 -47 106
-140z m2084 -76 l3 -218 -277 3 -278 3 0 127 c0 70 -4 133 -9 140 -4 8 -19 12
-32 10 -24 -3 -24 -4 -27 -140 l-3 -138 -274 0 -275 0 0 208 c0 115 3 212 7
215 3 4 266 7 584 7 l578 0 3 -217z m-4600 138 c40 -32 110 -92 156 -135 l82
-76 -322 0 -323 0 69 63 c83 75 247 207 257 207 4 0 41 -26 81 -59z m1829 -21
c4 -36 7 -156 8 -268 1 -163 -2 -210 -15 -240 -8 -20 -21 -62 -28 -92 -12 -51
-15 -55 -44 -58 -18 -2 -32 0 -32 5 0 4 10 37 23 73 21 62 22 81 22 358 l0
293 30 -3 c29 -3 30 -5 36 -68z m1049 -151 c6 -10 10 -76 10 -147 0 -112 -3
-136 -24 -188 -13 -32 -29 -83 -36 -111 l-12 -53 -100 0 c-76 0 -99 3 -95 13
3 6 37 82 75 167 92 204 104 242 105 322 l0 67 34 -26 c19 -14 38 -34 43 -44z
m-3582 -109 l172 0 0 -200 0 -200 -579 0 -578 0 -7 125 c-8 128 2 213 28 247
27 37 53 39 426 33 201 -3 443 -5 538 -5z m1002 -200 l0 -200 -380 0 -380 0 0
200 0 200 380 0 380 0 0 -200z m4360 44 c39 -12 66 -29 104 -67 54 -55 106
-141 93 -154 -5 -4 -386 -9 -849 -11 l-840 -4 7 23 c27 89 114 196 175 216 24
7 228 11 646 12 530 1 617 -1 664 -15z m1883 -456 c9 -151 16 -175 103 -371
41 -92 77 -181 81 -197 8 -40 -7 -60 -156 -214 -154 -160 -161 -174 -287 -549
-124 -373 -124 -372 -90 -595 14 -97 26 -185 26 -194 0 -25 -37 -49 -151 -97
-57 -24 -128 -54 -157 -67 -72 -32 -142 -101 -296 -294 -238 -297 -256 -328
-276 -465 -26 -188 -42 -255 -61 -265 -10 -6 -96 -14 -191 -19 -185 -10 -220
-18 -318 -73 -100 -56 -354 -219 -422 -271 -82 -61 -109 -99 -182 -252 -31
-66 -65 -128 -74 -138 -22 -24 -66 -19 -233 28 -179 50 -207 48 -518 -37 -205
-55 -308 -90 -361 -120 -19 -12 -92 -79 -161 -151 l-125 -131 -31 13 c-16 7
-90 48 -164 91 -84 51 -153 84 -188 92 -80 19 -626 18 -698 0 -29 -8 -111 -49
-182 -91 -71 -43 -144 -84 -162 -91 l-32 -14 -127 131 c-135 140 -166 161
-305 206 -134 44 -396 114 -474 127 -92 15 -132 11 -299 -35 -195 -54 -182
-60 -273 120 -42 82 -91 166 -109 188 -31 37 -251 188 -438 300 -147 88 -178
97 -383 107 -98 4 -182 11 -187 14 -13 8 -38 117 -52 231 -21 169 -38 199
-278 496 -178 221 -236 277 -336 318 -42 17 -110 45 -151 62 -41 17 -86 40
-100 51 -30 24 -30 14 7 265 27 182 25 197 -97 562 -128 384 -129 385 -296
557 -76 78 -141 153 -144 167 -7 27 34 142 105 292 56 118 68 169 76 298 l7
107 1606 1 c1352 2 4073 8 6897 17 l651 2 6 -112z"/>
<path d="M2904 8188 c-16 -13 -69 -58 -119 -102 -101 -89 -199 -156 -227 -156
-10 0 -32 -10 -49 -22 -29 -22 -40 -23 -275 -26 -310 -4 -301 5 -166 -159 60
-72 120 -133 155 -157 l57 -39 0 -137 c0 -152 9 -182 48 -161 21 11 22 18 22
159 1 103 4 152 13 164 12 15 66 17 575 24 l561 7 36 -24 35 -24 0 -151 c0
-126 3 -153 15 -158 41 -15 45 0 45 154 0 133 2 149 18 154 56 19 292 272 292
315 0 28 -29 32 -255 29 -198 -3 -201 -3 -255 23 -30 15 -84 40 -120 56 -78
36 -180 112 -218 161 -37 49 -99 92 -132 92 -15 0 -40 -10 -56 -22z m160 -134
c39 -38 99 -89 134 -111 46 -30 60 -43 50 -49 -20 -14 -528 -17 -562 -5 l-28
11 48 37 c27 20 83 66 124 103 41 36 88 76 104 88 34 26 28 29 130 -74z m-421
-221 c28 -16 63 -18 312 -18 273 0 281 1 337 24 l57 24 53 -24 c50 -23 64 -24
244 -24 l192 0 -21 -29 c-36 -51 -138 -155 -173 -176 l-34 -21 -37 28 -37 28
-590 -3 -591 -4 -25 -24 c-25 -23 -26 -23 -55 -5 -17 10 -44 32 -61 47 -32 30
-134 147 -134 155 0 2 87 4 193 4 186 0 194 1 242 25 53 27 66 26 128 -7z"/>
<path d="M2858 7390 c-61 -33 -125 -132 -113 -177 9 -38 43 -26 72 27 50 90
98 118 170 98 37 -10 98 -64 136 -121 23 -35 53 -35 59 -2 7 34 -52 119 -110
159 -57 40 -156 47 -214 16z"/>
<path d="M1625 7164 c-9 -9 -15 -23 -13 -30 2 -8 59 -80 127 -160 96 -112 129
-144 145 -142 44 6 28 41 -72 158 l-99 115 1138 3 c627 1 1139 4 1139 6 0 1
-5 17 -11 35 l-11 31 -1163 0 c-1060 0 -1165 -1 -1180 -16z"/>
<path d="M4065 6934 c-30 -36 -55 -72 -55 -79 0 -17 48 -32 59 -19 4 5 31 37
59 70 29 34 52 64 52 67 0 3 -13 10 -30 15 -29 10 -32 8 -85 -54z"/>
<path d="M1966 6911 c-17 -19 -18 -37 -14 -241 2 -142 8 -224 15 -231 6 -6 21
-8 33 -4 21 7 21 9 18 216 l-3 209 355 -1 c195 -1 379 -4 408 -7 l53 -7 -102
-119 c-259 -300 -502 -512 -699 -607 -58 -28 -112 -54 -120 -59 -8 -4 -15 -16
-15 -26 0 -67 237 48 446 216 160 129 412 384 522 530 l42 55 61 0 c56 0 62
-2 71 -25 16 -40 194 -240 310 -348 185 -172 518 -438 560 -449 28 -6 48 9 40
30 -3 8 -63 59 -134 113 -272 209 -486 407 -639 589 l-84 100 58 6 c31 4 214
7 406 8 l349 1 -7 -209 c-7 -207 -7 -209 14 -216 12 -4 27 -1 35 5 11 10 10
19 -11 58 -30 55 -28 117 3 161 15 20 21 50 26 132 6 97 5 108 -13 124 -17 16
-49 17 -427 12 -242 -3 -440 -10 -485 -17 -61 -9 -95 -9 -155 0 -47 8 -240 14
-488 17 -404 5 -411 5 -429 -16z"/>
<path d="M2268 6735 c-65 -36 -73 -122 -17 -169 97 -82 226 50 142 144 -34 37
-85 47 -125 25z m83 -76 c9 -18 7 -25 -10 -43 -17 -16 -25 -18 -39 -10 -19 12
-27 37 -18 60 8 22 54 17 67 -7z"/>
<path d="M3552 6735 c-44 -20 -67 -73 -52 -121 22 -66 87 -92 150 -59 58 30
69 104 23 155 -34 36 -76 45 -121 25z m78 -70 c14 -17 5 -51 -16 -59 -22 -8
-54 11 -54 32 0 38 46 56 70 27z"/>
<path d="M2904 6661 c-36 -22 -58 -75 -48 -115 3 -14 20 -37 36 -51 96 -81
225 52 141 145 -36 40 -86 48 -129 21z m90 -73 c8 -14 6 -22 -10 -39 -18 -17
-25 -19 -43 -10 -20 11 -29 50 -14 65 12 12 56 2 67 -16z"/>
<path d="M1567 6373 c-17 -16 -3 -42 48 -93 l56 -55 -233 -5 c-213 -5 -233 -6
-236 -23 -4 -17 239 -319 265 -331 21 -9 43 5 43 26 0 11 -48 75 -106 144
l-106 124 356 0 c341 0 356 1 366 19 7 15 6 23 -6 35 -12 13 -40 16 -138 16
l-122 0 -44 45 -44 45 300 2 299 3 0 25 0 25 -346 3 c-190 1 -348 -1 -352 -5z"/>
<path d="M3664 6365 c-17 -43 -10 -45 298 -47 l292 -3 -38 -42 -38 -42 -140
-3 c-117 -3 -143 -6 -151 -19 -6 -9 -7 -24 -4 -33 6 -14 33 -16 243 -16 211 0
235 2 230 16 -3 9 -6 22 -6 30 0 10 -13 14 -46 14 l-46 0 45 51 c32 36 43 57
40 73 -5 22 -9 23 -146 29 -78 4 -229 7 -335 7 -162 0 -194 -2 -198 -15z"/>
<path d="M2915 6328 c-11 -6 -90 -81 -175 -167 -211 -212 -207 -208 -223 -188
-10 14 -67 17 -467 26 -317 7 -459 6 -467 -1 -10 -8 -13 -74 -13 -274 l0 -264
-64 0 c-67 0 -92 -13 -80 -44 13 -35 243 -13 393 39 176 60 421 198 640 363
67 50 195 164 303 270 153 151 190 183 207 177 11 -3 51 -41 87 -83 162 -187
445 -411 727 -576 243 -143 401 -195 597 -199 105 -2 115 0 118 17 6 27 -15
36 -85 36 l-63 0 -2 183 c-2 100 -3 216 -3 257 0 41 -4 81 -8 88 -6 9 -111 12
-467 12 -450 0 -459 0 -473 -20 -14 -20 -18 -17 -121 77 -59 54 -136 132 -171
174 -81 97 -138 126 -190 97z m-600 -398 l180 -1 -35 -30 c-74 -64 -360 -247
-470 -301 -127 -62 -245 -105 -315 -114 l-45 -7 0 164 c0 90 3 195 7 233 l6
69 246 -6 c135 -4 327 -7 426 -7z m1565 0 l397 0 7 -226 c4 -124 6 -227 4
-230 -9 -8 -168 37 -246 70 -91 39 -250 128 -382 213 -93 61 -240 171 -240
180 0 3 14 3 31 -1 17 -3 210 -6 429 -6z"/>
<path d="M2890 5984 c-148 -150 -389 -338 -578 -449 -105 -62 -121 -78 -101
-101 19 -24 41 -16 157 54 151 90 331 226 475 357 l117 107 68 -63 c165 -156
311 -269 506 -393 118 -75 158 -90 170 -61 9 24 -2 40 -47 65 -171 96 -427
290 -583 442 -55 54 -107 98 -115 98 -8 0 -39 -25 -69 -56z"/>
<path d="M4410 5893 c0 -12 5 -25 11 -28 17 -11 18 -2 4 25 -14 24 -14 24 -15
3z"/>
<path d="M1675 4115 c-28 -28 -32 -70 -10 -102 8 -11 38 -34 67 -51 98 -56 96
-52 59 -106 -18 -26 -48 -80 -66 -119 -95 -209 -77 -413 54 -606 l41 -61 -47
-35 c-61 -44 -141 -75 -198 -75 -60 0 -102 38 -144 130 -58 126 -75 234 -75
480 0 168 4 236 18 310 33 173 33 182 -5 214 -37 31 -79 30 -112 -2 -44 -45
-83 -359 -74 -602 9 -236 48 -400 123 -526 72 -119 137 -165 248 -172 113 -7
226 33 344 124 l44 33 56 -38 c168 -114 335 -149 447 -96 125 60 219 243 255
495 26 176 8 503 -36 702 -22 98 -66 128 -134 93 -41 -21 -46 -53 -26 -159 30
-168 37 -240 37 -401 0 -286 -61 -508 -156 -571 -50 -33 -165 -5 -278 68 l-47
30 20 32 c88 130 137 300 124 426 -11 109 -65 257 -125 342 l-19 27 32 24 c18
14 52 34 75 46 49 25 73 55 73 94 0 38 -40 77 -81 77 -35 0 -129 -46 -180 -89
l-33 -28 -60 42 c-119 83 -168 94 -211 50z m313 -432 c40 -88 57 -192 43 -269
-11 -55 -46 -145 -77 -193 l-16 -23 -24 36 c-68 99 -93 215 -70 324 18 88 83
217 101 202 7 -5 26 -40 43 -77z"/>
<path d="M5555 4130 c-230 -46 -385 -223 -385 -440 0 -75 16 -130 59 -200 l29
-47 -28 -45 c-62 -100 -77 -213 -40 -309 l19 -52 -22 -18 c-12 -10 -47 -31
-77 -46 -75 -38 -172 -39 -245 -3 -107 54 -220 197 -259 330 l-17 55 33 24
c77 58 160 152 191 219 42 89 45 191 8 264 -65 127 -225 230 -401 259 -86 15
-266 -1 -362 -31 -73 -22 -143 -77 -164 -127 -20 -46 -20 -1085 -1 -1123 26
-52 95 -62 137 -20 19 19 20 34 20 277 0 243 1 255 18 241 33 -30 99 -57 166
-69 63 -10 92 -9 172 7 29 6 32 4 38 -28 17 -91 117 -250 210 -336 183 -166
397 -187 591 -57 l66 44 61 -39 c134 -87 250 -105 487 -76 263 32 355 60 377
112 15 37 11 58 -19 92 -25 27 -43 27 -149 2 -103 -24 -310 -50 -400 -50 -209
0 -383 187 -312 336 9 19 19 34 23 34 3 0 33 -19 66 -40 73 -49 152 -80 222
-87 63 -7 128 21 230 98 35 27 67 49 70 49 4 0 39 -31 78 -69 39 -39 83 -73
96 -76 57 -14 117 44 103 100 -3 14 -36 57 -72 96 l-66 72 61 56 c34 31 67 66
73 79 24 48 -22 112 -79 112 -30 0 -48 -11 -111 -69 l-75 -68 -61 43 c-173
123 -295 126 -470 9 l-64 -44 -18 27 c-12 19 -17 47 -17 102 0 64 4 82 27 121
30 52 76 90 146 122 41 19 64 22 177 22 187 -1 324 -37 622 -163 66 -29 130
-52 142 -52 11 0 84 32 162 70 78 39 148 70 155 70 16 0 18 -126 7 -483 -6
-215 -7 -218 -27 -212 -74 22 -146 28 -187 16 -59 -18 -144 -104 -159 -162
-16 -59 -6 -132 25 -185 94 -161 381 -186 485 -42 17 23 34 43 38 43 4 0 42
-18 85 -39 65 -33 90 -40 156 -44 45 -2 102 1 133 8 68 16 204 79 245 113 75
65 147 211 185 381 28 120 30 322 5 415 -46 169 -149 315 -269 377 -73 38
-405 66 -538 45 -105 -17 -259 -70 -393 -137 l-114 -56 -97 42 c-206 87 -363
135 -523 159 -81 12 -218 13 -278 1z m-1120 -185 c120 -32 230 -117 242 -188
8 -50 -33 -132 -93 -187 l-45 -42 -28 44 c-34 51 -91 106 -145 138 -78 47
-178 22 -272 -66 l-44 -40 0 147 c0 105 4 149 13 156 53 43 268 65 372 38z
m2826 5 c151 -16 169 -22 226 -83 81 -85 118 -176 129 -316 11 -145 -44 -371
-116 -477 -64 -91 -255 -151 -355 -110 -22 9 -75 40 -119 69 l-79 52 7 314 c3
173 6 367 6 432 0 104 2 118 18 122 33 9 180 7 283 -3z m-2925 -434 c51 -50
54 -63 18 -76 -46 -18 -127 -7 -168 23 -16 12 -14 16 25 55 24 23 52 42 62 42
11 0 39 -20 63 -44z m1442 -21 c28 -20 52 -40 52 -45 0 -5 -31 -31 -70 -56
-67 -45 -71 -46 -110 -36 -42 10 -150 71 -150 83 0 11 53 47 102 69 67 30 114
26 176 -15z m957 -477 c43 -21 45 -24 45 -64 0 -38 -3 -43 -31 -53 -42 -14
-125 4 -156 35 -29 29 -29 61 0 92 18 20 28 23 59 18 21 -4 58 -16 83 -28z"/>
<path d="M2896 4104 c-28 -29 -33 -59 -15 -97 18 -39 50 -47 189 -47 l130 0 0
-494 0 -494 -141 -4 c-140 -3 -141 -3 -165 -31 -31 -37 -31 -81 1 -112 l24
-25 366 0 366 0 24 25 c37 36 34 86 -6 119 -30 25 -35 26 -165 26 l-134 0 0
495 0 495 130 0 c170 0 200 14 200 91 0 18 -10 39 -25 54 l-24 25 -364 0 -364
0 -27 -26z"/>
<path d="M8210 4093 c-152 -42 -245 -136 -285 -290 -19 -72 -19 -116 0 -180
31 -105 98 -145 428 -254 128 -42 221 -79 236 -92 33 -30 61 -94 61 -141 0
-73 -66 -141 -167 -172 -79 -25 -234 -30 -287 -10 -40 16 -106 75 -161 147
-44 56 -92 63 -136 20 -51 -51 -37 -90 76 -210 95 -100 163 -133 293 -139 192
-9 351 39 451 137 77 75 96 119 96 226 0 80 -3 97 -31 156 -58 123 -104 153
-344 228 -179 57 -310 109 -337 134 -27 24 -29 54 -8 125 19 64 62 115 115
136 133 53 301 15 400 -90 23 -24 53 -47 67 -50 53 -14 113 46 99 99 -16 64
-137 162 -252 204 -93 33 -224 40 -314 16z"/>
<path d="M3435 2169 c-22 -5 -66 -16 -97 -25 l-58 -17 0 -98 0 -98 67 31 c129
58 244 68 312 27 98 -59 91 -190 -16 -317 -26 -31 -102 -115 -168 -186 -66
-71 -144 -156 -172 -188 l-53 -59 0 -89 0 -90 350 0 350 0 0 95 0 95 -247 0
-248 1 30 25 c106 88 143 123 256 240 102 106 134 146 164 207 34 69 38 84 37
154 0 43 -5 92 -12 108 -34 88 -110 152 -215 180 -64 16 -214 19 -280 4z"/>
<path d="M4410 2164 c-125 -46 -197 -141 -237 -317 -24 -107 -24 -366 1 -472
45 -195 131 -295 280 -325 165 -34 322 40 390 183 51 109 60 167 61 377 0 157
-3 208 -18 260 -40 147 -99 230 -195 277 -71 35 -210 43 -282 17z m194 -195
c63 -50 86 -142 86 -353 0 -235 -27 -333 -103 -370 -80 -39 -154 5 -187 112
-40 128 -36 426 6 532 24 60 75 100 128 100 29 0 52 -7 70 -21z"/>
<path d="M4492 1724 c-18 -8 -40 -54 -43 -89 -4 -59 1 -84 27 -114 59 -70 144
-16 144 92 0 63 -34 111 -80 114 -19 1 -41 -1 -48 -3z"/>
<path d="M5245 2165 c-33 -7 -78 -20 -100 -28 l-40 -14 -3 -96 c-1 -54 -1 -97
1 -97 2 0 35 14 72 31 84 38 194 62 243 53 150 -27 185 -167 77 -312 -23 -31
-105 -124 -181 -206 -76 -82 -160 -173 -186 -203 l-48 -55 0 -89 0 -89 348 2
347 3 3 93 3 92 -248 1 -248 0 40 31 c22 18 114 106 205 197 201 202 231 250
238 377 5 89 -6 137 -44 194 -32 48 -107 96 -179 115 -72 18 -218 18 -300 0z"/>
<path d="M6196 1838 l-206 -321 0 -109 0 -108 215 0 214 0 3 -117 3 -118 100
0 100 0 3 118 3 117 59 0 60 0 0 90 0 90 -60 0 -60 0 0 340 0 340 -114 0 -114
0 -206 -322z m224 -138 l0 -220 -141 0 c-77 0 -139 4 -137 9 4 12 272 431 276
431 1 0 2 -99 2 -220z"/>
</g>
</svg>
